<svg width="156" height="39" viewBox="0 0 156 39" fill="none" xmlns="http://www.w3.org/2000/svg">
<path d="M0.649994 38L8.09999 3L16.4 1.25L11.8 22.85L23.8 11.55H33.45L18.65 24.85L28.6 38H19.05L11 26.65L8.59999 38H0.649994Z" fill="black"/>
<path d="M40.448 9.1C39.348 9.1 38.4147 8.73333 37.648 8C36.9147 7.23333 36.548 6.3 36.548 5.2C36.548 3.86666 37.0314 2.7 37.998 1.7C38.998 0.699998 40.148 0.199997 41.448 0.199997C42.548 0.199997 43.4647 0.583331 44.198 1.35C44.9647 2.08333 45.348 3 45.348 4.1C45.348 5.43333 44.848 6.6 43.848 7.6C42.8814 8.6 41.748 9.1 40.448 9.1ZM43.448 11.55L37.848 38H29.898L35.498 11.55H43.448Z" fill="black"/>
<path d="M58.4898 1.25L50.6898 38H42.7398L50.1898 3L58.4898 1.25Z" fill="black"/>
<path d="M57.2316 25.75C57.2316 23.75 57.6316 21.85 58.4316 20.05C59.2316 18.25 60.2983 16.7 61.6316 15.4C62.9983 14.0667 64.5983 13.0167 66.4316 12.25C68.265 11.45 70.1983 11.05 72.2316 11.05C74.0983 11.05 75.8483 11.3833 77.4816 12.05C79.115 12.6833 80.515 13.5667 81.6816 14.7C82.8483 15.8333 83.765 17.1833 84.4316 18.75C85.1316 20.3167 85.4816 22 85.4816 23.8C85.4816 25.8 85.0816 27.7 84.2816 29.5C83.4816 31.2667 82.3983 32.8167 81.0316 34.15C79.6983 35.4833 78.115 36.55 76.2816 37.35C74.4816 38.1167 72.565 38.5 70.5316 38.5C68.6316 38.5 66.865 38.1833 65.2316 37.55C63.5983 36.8833 62.1983 35.9833 61.0316 34.85C59.865 33.7167 58.9316 32.3667 58.2316 30.8C57.565 29.2333 57.2316 27.55 57.2316 25.75ZM70.8816 31.5C72.7483 31.5 74.3483 30.7833 75.6816 29.35C77.015 27.8833 77.6816 26.15 77.6816 24.15C77.6816 22.3833 77.1316 20.9333 76.0316 19.8C74.9316 18.6333 73.5316 18.05 71.8316 18.05C69.965 18.05 68.365 18.7833 67.0316 20.25C65.6983 21.6833 65.0316 23.4 65.0316 25.4C65.0316 27.1667 65.5816 28.6333 66.6816 29.8C67.7816 30.9333 69.1816 31.5 70.8816 31.5Z" fill="black"/>
<path d="M117.241 23.5C117.241 25.5667 116.841 27.5 116.041 29.3C115.274 31.1 114.224 32.6667 112.891 34C111.591 35.3333 110.024 36.4 108.191 37.2C106.391 37.9667 104.474 38.35 102.441 38.35C100.941 38.35 99.541 38.1167 98.241 37.65C96.9743 37.1833 95.8243 36.5167 94.791 35.65L94.291 38H86.441L93.891 3L102.191 1.25L99.791 12.6C100.658 12.1667 101.558 11.8333 102.491 11.6C103.458 11.3333 104.441 11.2 105.441 11.2C107.108 11.2 108.658 11.5167 110.091 12.15C111.524 12.7833 112.758 13.65 113.791 14.75C114.858 15.85 115.691 17.15 116.291 18.65C116.924 20.15 117.241 21.7667 117.241 23.5ZM103.241 18.05C102.308 18.05 101.424 18.2 100.591 18.5C99.7577 18.7667 98.9743 19.2 98.241 19.8L96.291 28.9C96.9243 29.7 97.7577 30.3333 98.791 30.8C99.8243 31.2333 100.941 31.45 102.141 31.45C104.208 31.45 105.941 30.75 107.341 29.35C108.774 27.9167 109.491 26.2 109.491 24.2C109.491 22.4667 108.891 21.0167 107.691 19.85C106.524 18.65 105.041 18.05 103.241 18.05Z" fill="#297FFF"/>
<path d="M128.729 9.1C127.629 9.1 126.696 8.73333 125.929 8C125.196 7.23333 124.829 6.3 124.829 5.2C124.829 3.86666 125.313 2.7 126.279 1.7C127.279 0.699998 128.429 0.199997 129.729 0.199997C130.829 0.199997 131.746 0.583331 132.479 1.35C133.246 2.08333 133.629 3 133.629 4.1C133.629 5.43333 133.129 6.6 132.129 7.6C131.163 8.6 130.029 9.1 128.729 9.1ZM131.729 11.55L126.129 38H118.179L123.779 11.55H131.729Z" fill="#297FFF"/>
<path d="M136.521 29.5L138.921 18.3H133.671L135.071 11.55H140.321L141.771 4.75L150.071 3L148.221 11.55H155.471L154.071 18.3H146.821L144.671 28.25C144.438 29.45 144.554 30.3167 145.021 30.85C145.521 31.3833 146.438 31.65 147.771 31.65C148.338 31.65 148.871 31.6167 149.371 31.55C149.904 31.4833 150.471 31.3833 151.071 31.25L149.671 37.75C149.038 37.8833 148.221 38 147.221 38.1C146.254 38.2333 145.354 38.3 144.521 38.3C141.354 38.3 139.071 37.5333 137.671 36C136.304 34.4667 135.921 32.3 136.521 29.5Z" fill="#297FFF"/>
</svg>
