<svg width="113" height="28" viewBox="0 0 113 28" fill="none" xmlns="http://www.w3.org/2000/svg">
<path d="M0 27.6345L5.43757 2.047L11.4955 0.767625L8.1381 16.5587L16.8966 8.29765H23.9399L13.1377 18.0209L20.4 27.6345H13.4297L7.5542 19.3368L5.8025 27.6345H0Z" fill="white"/>
<path d="M29.0476 6.50653C28.2447 6.50653 27.5635 6.23847 27.0039 5.70235C26.4687 5.14186 26.2011 4.45953 26.2011 3.65535C26.2011 2.68059 26.5538 1.82768 27.2594 1.09661C27.9893 0.365536 28.8286 0 29.7775 0C30.5803 0 31.2494 0.280244 31.7846 0.840731C32.3442 1.37685 32.624 2.047 32.624 2.85118C32.624 3.82594 32.259 4.67885 31.5292 5.40992C30.8236 6.14099 29.9964 6.50653 29.0476 6.50653ZM31.2372 8.29765L27.1499 27.6345H21.3474L25.4347 8.29765H31.2372Z" fill="white"/>
<path d="M42.2158 0.767625L36.5228 27.6345H30.7203L36.1579 2.047L42.2158 0.767625Z" fill="white"/>
<path d="M41.2975 18.6789C41.2975 17.2167 41.5895 15.8277 42.1734 14.5118C42.7573 13.1958 43.5358 12.0627 44.509 11.1123C45.5065 10.1375 46.6742 9.36989 48.0124 8.8094C49.3505 8.22454 50.7616 7.93212 52.2456 7.93212C53.6081 7.93212 54.8853 8.17581 56.0775 8.66318C57.2696 9.1262 58.2914 9.77198 59.1429 10.6005C59.9945 11.4291 60.6635 12.416 61.1501 13.5614C61.661 14.7067 61.9165 15.9373 61.9165 17.2533C61.9165 18.7154 61.6245 20.1044 61.0406 21.4204C60.4567 22.7119 59.666 23.8451 58.6685 24.8198C57.6954 25.7946 56.5397 26.5744 55.2016 27.1593C53.8878 27.7198 52.4889 28 51.0048 28C49.6181 28 48.3286 27.7685 47.1365 27.3055C45.9444 26.8181 44.9226 26.1601 44.071 25.3316C43.2195 24.503 42.5383 23.5161 42.0274 22.3708C41.5408 21.2254 41.2975 19.9948 41.2975 18.6789ZM51.2603 22.8825C52.6227 22.8825 53.7905 22.3586 54.7637 21.3107C55.7369 20.2385 56.2234 18.9713 56.2234 17.5091C56.2234 16.2176 55.822 15.1575 55.0191 14.329C54.2163 13.4761 53.1945 13.0496 51.9537 13.0496C50.5912 13.0496 49.4234 13.5857 48.4503 14.658C47.4771 15.7058 46.9905 16.9608 46.9905 18.423C46.9905 19.7145 47.392 20.7868 48.1948 21.6397C48.9977 22.4682 50.0195 22.8825 51.2603 22.8825Z" fill="white"/>
<path d="M85.0968 17.0339C85.0968 18.5448 84.8049 19.9582 84.221 21.2742C83.6614 22.5901 82.895 23.7354 81.9219 24.7102C80.973 25.6849 79.8296 26.4648 78.4915 27.0496C77.1777 27.6101 75.7788 27.8903 74.2947 27.8903C73.1999 27.8903 72.178 27.7198 71.2292 27.3786C70.3047 27.0374 69.4653 26.55 68.7111 25.9165L68.3462 27.6345H62.6167L68.0542 2.047L74.1122 0.767625L72.3605 9.06527C72.9931 8.74848 73.65 8.50479 74.3312 8.3342C75.0367 8.13925 75.7544 8.04178 76.4843 8.04178C77.7008 8.04178 78.8321 8.27328 79.8782 8.73629C80.9244 9.1993 81.8246 9.8329 82.5788 10.6371C83.3573 11.4413 83.9655 12.3916 84.4034 13.4883C84.8657 14.5849 85.0968 15.7668 85.0968 17.0339ZM74.8786 13.0496C74.1974 13.0496 73.5526 13.1593 72.9444 13.3786C72.3362 13.5735 71.7644 13.8903 71.2292 14.329L69.8059 20.9817C70.2682 21.5666 70.8764 22.0296 71.6306 22.3708C72.3848 22.6876 73.1999 22.846 74.0757 22.846C75.5841 22.846 76.8492 22.3342 77.8711 21.3107C78.9172 20.2628 79.4403 19.0078 79.4403 17.5457C79.4403 16.2785 79.0024 15.2185 78.1265 14.3655C77.275 13.4883 76.1924 13.0496 74.8786 13.0496Z" fill="white"/>
<path d="M93.4818 6.50653C92.679 6.50653 91.9978 6.23847 91.4382 5.70235C90.9029 5.14186 90.6353 4.45953 90.6353 3.65535C90.6353 2.68059 90.9881 1.82768 91.6936 1.09661C92.4235 0.365536 93.2629 0 94.2117 0C95.0146 0 95.6836 0.280244 96.2189 0.840731C96.7784 1.37685 97.0582 2.047 97.0582 2.85118C97.0582 3.82594 96.6933 4.67885 95.9634 5.40992C95.2579 6.14099 94.4307 6.50653 93.4818 6.50653ZM95.6715 8.29765L91.5842 27.6345H85.7817L89.8689 8.29765H95.6715Z" fill="white"/>
<path d="M99.1689 21.4204L100.921 13.2324H97.0887L98.1105 8.29765H101.942L103.001 3.32637L109.059 2.047L107.708 8.29765H113L111.978 13.2324H106.687L105.117 20.5065C104.947 21.3838 105.032 22.0174 105.373 22.4073C105.738 22.7972 106.407 22.9922 107.38 22.9922C107.794 22.9922 108.183 22.9678 108.548 22.9191C108.937 22.8703 109.351 22.7972 109.789 22.6997L108.767 27.4517C108.304 27.5492 107.708 27.6345 106.979 27.7076C106.273 27.805 105.616 27.8538 105.008 27.8538C102.697 27.8538 101.03 27.2933 100.008 26.1723C99.0107 25.0513 98.7309 23.4674 99.1689 21.4204Z" fill="white"/>
</svg>
