<svg width="1575" height="96" viewBox="0 0 1575 96" fill="none" xmlns="http://www.w3.org/2000/svg">
<g clip-path="url(#clip0)">
<g filter="url(#filter0_d)">
<rect x="552" width="471" height="96" rx="10" fill="white"/>
</g>
<path d="M570 40.8019L574.218 20.9906L578.918 20L576.313 32.2264L583.108 25.8302H588.572L580.192 33.3585L585.826 40.8019H580.418L575.86 34.3774L574.501 40.8019H570Z" fill="black"/>
<path d="M604 32.5943C604 33.7642 603.773 34.8585 603.32 35.8774C602.886 36.8962 602.292 37.783 601.537 38.5377C600.801 39.2925 599.914 39.8962 598.876 40.3491C597.857 40.783 596.771 41 595.62 41C594.771 41 593.978 40.8679 593.242 40.6038C592.525 40.3396 591.874 39.9623 591.288 39.4717L591.005 40.8019H586.561L590.779 20.9906L595.478 20L594.119 26.4245C594.61 26.1792 595.12 25.9906 595.648 25.8585C596.196 25.7075 596.752 25.6321 597.319 25.6321C598.262 25.6321 599.14 25.8113 599.951 26.1698C600.763 26.5283 601.461 27.0189 602.046 27.6415C602.65 28.2642 603.122 29 603.462 29.8491C603.821 30.6981 604 31.6132 604 32.5943ZM596.073 29.5094C595.544 29.5094 595.044 29.5943 594.572 29.7642C594.101 29.9151 593.657 30.1604 593.242 30.5L592.138 35.6509C592.496 36.1038 592.968 36.4623 593.553 36.7264C594.138 36.9717 594.771 37.0943 595.45 37.0943C596.62 37.0943 597.602 36.6981 598.394 35.9057C599.206 35.0943 599.612 34.1226 599.612 32.9906C599.612 32.0094 599.272 31.1887 598.593 30.5283C597.932 29.8491 597.092 29.5094 596.073 29.5094Z" fill="#297FFF"/>
<path d="M619.846 40V21.8H633.262V24.192H622.576V29.652H629.596V31.992H622.576V37.608H633.366V40H619.846ZM634.277 40L639.425 33.214L634.485 26.766H637.527L640.933 31.316L644.339 26.766H647.277L642.389 33.188L647.615 40H644.547L640.907 35.112L637.215 40H634.277ZM654.29 37.946C654.948 37.946 655.572 37.816 656.162 37.556C656.751 37.2787 657.314 36.8713 657.852 36.334L659.412 38.024C658.718 38.7173 657.921 39.2633 657.02 39.662C656.118 40.0433 655.174 40.234 654.186 40.234C653.232 40.234 652.34 40.0607 651.508 39.714C650.676 39.35 649.956 38.8647 649.35 38.258C648.743 37.6513 648.258 36.932 647.894 36.1C647.547 35.2507 647.374 34.3407 647.374 33.37C647.374 32.4167 647.547 31.524 647.894 30.692C648.258 29.8427 648.743 29.1147 649.35 28.508C649.956 27.884 650.676 27.3987 651.508 27.052C652.34 26.688 653.232 26.506 654.186 26.506C655.174 26.506 656.136 26.7053 657.072 27.104C658.008 27.4853 658.822 28.0227 659.516 28.716L657.878 30.484C657.375 29.9467 656.812 29.5393 656.188 29.262C655.564 28.9673 654.914 28.82 654.238 28.82C653.042 28.82 652.028 29.262 651.196 30.146C650.364 31.03 649.948 32.1047 649.948 33.37C649.948 34.67 650.364 35.762 651.196 36.646C652.045 37.5127 653.076 37.946 654.29 37.946ZM662.83 24.634C662.397 24.634 662.024 24.478 661.712 24.166C661.4 23.8367 661.244 23.4553 661.244 23.022C661.244 22.5887 661.4 22.216 661.712 21.904C662.024 21.5747 662.397 21.41 662.83 21.41C663.263 21.41 663.636 21.5747 663.948 21.904C664.277 22.216 664.442 22.5887 664.442 23.022C664.442 23.4553 664.277 23.8367 663.948 24.166C663.636 24.478 663.263 24.634 662.83 24.634ZM664.13 26.766V40H661.53V26.766H664.13ZM668.908 36.724V28.95H666.1V26.766H668.908V23.386L671.482 22.762V26.766H675.382V28.95H671.482V36.126C671.482 36.802 671.63 37.2787 671.924 37.556C672.236 37.8333 672.739 37.972 673.432 37.972C673.796 37.972 674.117 37.9547 674.394 37.92C674.689 37.868 675.001 37.7813 675.33 37.66V39.844C674.984 39.9653 674.576 40.0607 674.108 40.13C673.658 40.1993 673.242 40.234 672.86 40.234C671.578 40.234 670.598 39.9393 669.922 39.35C669.246 38.7433 668.908 37.868 668.908 36.724ZM688.484 38.492C687.722 39.0813 686.924 39.5233 686.092 39.818C685.26 40.0953 684.35 40.234 683.362 40.234C682.392 40.234 681.482 40.0607 680.632 39.714C679.783 39.35 679.046 38.8647 678.422 38.258C677.798 37.6513 677.304 36.932 676.94 36.1C676.594 35.2507 676.42 34.3407 676.42 33.37C676.42 32.4167 676.594 31.524 676.94 30.692C677.287 29.86 677.755 29.1407 678.344 28.534C678.934 27.9273 679.636 27.4507 680.45 27.104C681.265 26.74 682.132 26.558 683.05 26.558C683.952 26.558 684.792 26.74 685.572 27.104C686.37 27.4507 687.046 27.936 687.6 28.56C688.172 29.1667 688.623 29.8947 688.952 30.744C689.282 31.5933 689.446 32.5033 689.446 33.474V34.228H678.994C679.168 35.32 679.67 36.23 680.502 36.958C681.334 37.6687 682.322 38.024 683.466 38.024C684.108 38.024 684.723 37.92 685.312 37.712C685.902 37.504 686.404 37.218 686.82 36.854L688.484 38.492ZM682.998 28.742C682.01 28.742 681.144 29.0713 680.398 29.73C679.67 30.3887 679.211 31.238 679.02 32.278H686.872C686.682 31.2727 686.222 30.432 685.494 29.756C684.784 29.08 683.952 28.742 682.998 28.742ZM702.113 40V38.752C701.559 39.22 700.935 39.584 700.241 39.844C699.548 40.0867 698.82 40.208 698.057 40.208C697.121 40.208 696.246 40.0347 695.431 39.688C694.617 39.324 693.906 38.8387 693.299 38.232C692.71 37.6253 692.242 36.906 691.895 36.074C691.549 35.2247 691.375 34.3233 691.375 33.37C691.375 32.4167 691.549 31.524 691.895 30.692C692.242 29.86 692.71 29.1407 693.299 28.534C693.906 27.9273 694.625 27.4507 695.457 27.104C696.289 26.74 697.173 26.558 698.109 26.558C698.837 26.558 699.539 26.6707 700.215 26.896C700.891 27.1213 701.515 27.442 702.087 27.858V21.8L704.687 21.228V40H702.113ZM693.923 33.344C693.923 34.644 694.357 35.736 695.223 36.62C696.09 37.504 697.156 37.946 698.421 37.946C699.167 37.946 699.851 37.8073 700.475 37.53C701.117 37.2527 701.654 36.8627 702.087 36.36V30.354C701.654 29.8687 701.117 29.4873 700.475 29.21C699.834 28.9327 699.149 28.794 698.421 28.794C697.156 28.794 696.09 29.2273 695.223 30.094C694.357 30.9607 693.923 32.044 693.923 33.344ZM712.108 26.766H715.176V24.764C715.176 23.3947 715.557 22.346 716.32 21.618C717.1 20.8727 718.218 20.5 719.674 20.5C720.021 20.5 720.35 20.526 720.662 20.578C720.974 20.6127 721.269 20.6647 721.546 20.734V22.996C721.234 22.9093 720.957 22.8487 720.714 22.814C720.471 22.7793 720.203 22.762 719.908 22.762C719.197 22.762 718.66 22.9353 718.296 23.282C717.949 23.6113 717.776 24.1227 717.776 24.816V26.766H721.546V28.95H717.776V40H715.176V28.95H712.108V26.766ZM722.377 33.37C722.377 32.4167 722.551 31.524 722.897 30.692C723.261 29.8427 723.755 29.1147 724.379 28.508C725.003 27.884 725.731 27.3987 726.563 27.052C727.413 26.688 728.314 26.506 729.267 26.506C730.221 26.506 731.113 26.688 731.945 27.052C732.795 27.3987 733.523 27.884 734.129 28.508C734.753 29.1147 735.239 29.8427 735.585 30.692C735.949 31.524 736.131 32.4167 736.131 33.37C736.131 34.3407 735.949 35.2507 735.585 36.1C735.239 36.932 734.753 37.66 734.129 38.284C733.523 38.8907 732.795 39.376 731.945 39.74C731.113 40.0867 730.221 40.26 729.267 40.26C728.314 40.26 727.413 40.0867 726.563 39.74C725.731 39.376 725.003 38.8907 724.379 38.284C723.755 37.66 723.261 36.932 722.897 36.1C722.551 35.2507 722.377 34.3407 722.377 33.37ZM729.267 37.972C730.463 37.972 731.477 37.53 732.309 36.646C733.159 35.7447 733.583 34.6527 733.583 33.37C733.583 32.0873 733.159 31.004 732.309 30.12C731.477 29.236 730.463 28.794 729.267 28.794C728.071 28.794 727.049 29.236 726.199 30.12C725.35 31.004 724.925 32.0873 724.925 33.37C724.925 34.6527 725.341 35.7447 726.173 36.646C727.023 37.53 728.054 37.972 729.267 37.972ZM738.591 40V26.766H741.191V28.456C741.589 27.8147 742.101 27.3293 742.725 27C743.349 26.6533 744.051 26.48 744.831 26.48C745.108 26.48 745.351 26.4973 745.559 26.532C745.767 26.5667 745.966 26.6187 746.157 26.688V29.028C745.914 28.9413 745.663 28.872 745.403 28.82C745.143 28.768 744.883 28.742 744.623 28.742C743.86 28.742 743.175 28.95 742.569 29.366C741.979 29.7647 741.52 30.3627 741.191 31.16V40H738.591ZM755.389 36.724V28.95H752.581V26.766H755.389V23.386L757.963 22.762V26.766H761.863V28.95H757.963V36.126C757.963 36.802 758.11 37.2787 758.405 37.556C758.717 37.8333 759.219 37.972 759.913 37.972C760.277 37.972 760.597 37.9547 760.875 37.92C761.169 37.868 761.481 37.7813 761.811 37.66V39.844C761.464 39.9653 761.057 40.0607 760.589 40.13C760.138 40.1993 759.722 40.234 759.341 40.234C758.058 40.234 757.079 39.9393 756.403 39.35C755.727 38.7433 755.389 37.868 755.389 36.724ZM763.778 40V21.8L766.378 21.228V28.092C766.898 27.572 767.487 27.182 768.146 26.922C768.822 26.6447 769.559 26.506 770.356 26.506C771.864 26.506 773.103 26.9913 774.074 27.962C775.045 28.9153 775.53 30.1547 775.53 31.68V40H772.93V32.122C772.93 31.082 772.627 30.2673 772.02 29.678C771.431 29.0713 770.642 28.768 769.654 28.768C768.961 28.768 768.328 28.9153 767.756 29.21C767.201 29.5047 766.742 29.9293 766.378 30.484V40H763.778ZM789.996 38.492C789.233 39.0813 788.436 39.5233 787.604 39.818C786.772 40.0953 785.862 40.234 784.874 40.234C783.903 40.234 782.993 40.0607 782.144 39.714C781.295 39.35 780.558 38.8647 779.934 38.258C779.31 37.6513 778.816 36.932 778.452 36.1C778.105 35.2507 777.932 34.3407 777.932 33.37C777.932 32.4167 778.105 31.524 778.452 30.692C778.799 29.86 779.267 29.1407 779.856 28.534C780.445 27.9273 781.147 27.4507 781.962 27.104C782.777 26.74 783.643 26.558 784.562 26.558C785.463 26.558 786.304 26.74 787.084 27.104C787.881 27.4507 788.557 27.936 789.112 28.56C789.684 29.1667 790.135 29.8947 790.464 30.744C790.793 31.5933 790.958 32.5033 790.958 33.474V34.228H780.506C780.679 35.32 781.182 36.23 782.014 36.958C782.846 37.6687 783.834 38.024 784.978 38.024C785.619 38.024 786.235 37.92 786.824 37.712C787.413 37.504 787.916 37.218 788.332 36.854L789.996 38.492ZM784.51 28.742C783.522 28.742 782.655 29.0713 781.91 29.73C781.182 30.3887 780.723 31.238 780.532 32.278H788.384C788.193 31.2727 787.734 30.432 787.006 29.756C786.295 29.08 785.463 28.742 784.51 28.742ZM812.18 33.37C812.18 34.3233 812.007 35.2247 811.66 36.074C811.313 36.906 810.837 37.6253 810.23 38.232C809.641 38.8387 808.93 39.324 808.098 39.688C807.266 40.0347 806.382 40.208 805.446 40.208C804.701 40.208 803.99 40.0953 803.314 39.87C802.638 39.6447 802.014 39.3153 801.442 38.882V40H798.868V21.8L801.468 21.228V28.014C802.005 27.546 802.621 27.1907 803.314 26.948C804.007 26.688 804.735 26.558 805.498 26.558C806.434 26.558 807.309 26.74 808.124 27.104C808.939 27.4507 809.641 27.9273 810.23 28.534C810.837 29.1407 811.313 29.86 811.66 30.692C812.007 31.524 812.18 32.4167 812.18 33.37ZM805.16 28.82C804.415 28.82 803.721 28.9587 803.08 29.236C802.439 29.5133 801.901 29.9033 801.468 30.406V36.386C801.884 36.8713 802.413 37.2527 803.054 37.53C803.713 37.8073 804.415 37.946 805.16 37.946C806.425 37.946 807.483 37.5127 808.332 36.646C809.199 35.7793 809.632 34.696 809.632 33.396C809.632 32.096 809.199 31.0127 808.332 30.146C807.465 29.262 806.408 28.82 805.16 28.82ZM815.961 24.634C815.528 24.634 815.155 24.478 814.843 24.166C814.531 23.8367 814.375 23.4553 814.375 23.022C814.375 22.5887 814.531 22.216 814.843 21.904C815.155 21.5747 815.528 21.41 815.961 21.41C816.394 21.41 816.767 21.5747 817.079 21.904C817.408 22.216 817.573 22.5887 817.573 23.022C817.573 23.4553 817.408 23.8367 817.079 24.166C816.767 24.478 816.394 24.634 815.961 24.634ZM817.261 26.766V40H814.661V26.766H817.261ZM826.381 40.104C825.462 40.104 824.596 39.9307 823.781 39.584C822.966 39.22 822.256 38.7347 821.649 38.128C821.06 37.5213 820.592 36.802 820.245 35.97C819.898 35.138 819.725 34.254 819.725 33.318C819.725 32.382 819.898 31.498 820.245 30.666C820.592 29.834 821.06 29.1147 821.649 28.508C822.256 27.9013 822.966 27.4247 823.781 27.078C824.613 26.714 825.497 26.532 826.433 26.532C827.144 26.532 827.828 26.6447 828.487 26.87C829.163 27.0953 829.787 27.4247 830.359 27.858V26.766H832.933V40.182C832.933 41.898 832.404 43.2153 831.347 44.134C830.307 45.07 828.816 45.538 826.875 45.538C825.922 45.538 824.977 45.4253 824.041 45.2C823.122 44.9747 822.29 44.654 821.545 44.238L822.559 42.21C823.304 42.5913 824.024 42.8773 824.717 43.068C825.41 43.2587 826.104 43.354 826.797 43.354C827.941 43.354 828.816 43.0853 829.423 42.548C830.03 42.0107 830.333 41.222 830.333 40.182V38.7C829.778 39.1507 829.163 39.4973 828.487 39.74C827.811 39.9827 827.109 40.104 826.381 40.104ZM822.273 33.318C822.273 34.5833 822.698 35.658 823.547 36.542C824.396 37.4087 825.445 37.842 826.693 37.842C827.438 37.842 828.123 37.712 828.747 37.452C829.371 37.1747 829.9 36.7933 830.333 36.308V30.328C829.917 29.8427 829.388 29.47 828.747 29.21C828.123 28.9327 827.438 28.794 826.693 28.794C825.445 28.794 824.396 29.236 823.547 30.12C822.698 30.9867 822.273 32.0527 822.273 33.318ZM847.481 40.104C846.562 40.104 845.695 39.9307 844.881 39.584C844.066 39.22 843.355 38.7347 842.749 38.128C842.159 37.5213 841.691 36.802 841.345 35.97C840.998 35.138 840.825 34.254 840.825 33.318C840.825 32.382 840.998 31.498 841.345 30.666C841.691 29.834 842.159 29.1147 842.749 28.508C843.355 27.9013 844.066 27.4247 844.881 27.078C845.713 26.714 846.597 26.532 847.533 26.532C848.243 26.532 848.928 26.6447 849.587 26.87C850.263 27.0953 850.887 27.4247 851.459 27.858V26.766H854.033V40.182C854.033 41.898 853.504 43.2153 852.447 44.134C851.407 45.07 849.916 45.538 847.975 45.538C847.021 45.538 846.077 45.4253 845.141 45.2C844.222 44.9747 843.39 44.654 842.645 44.238L843.659 42.21C844.404 42.5913 845.123 42.8773 845.817 43.068C846.51 43.2587 847.203 43.354 847.897 43.354C849.041 43.354 849.916 43.0853 850.523 42.548C851.129 42.0107 851.433 41.222 851.433 40.182V38.7C850.878 39.1507 850.263 39.4973 849.587 39.74C848.911 39.9827 848.209 40.104 847.481 40.104ZM843.373 33.318C843.373 34.5833 843.797 35.658 844.647 36.542C845.496 37.4087 846.545 37.842 847.793 37.842C848.538 37.842 849.223 37.712 849.847 37.452C850.471 37.1747 850.999 36.7933 851.433 36.308V30.328C851.017 29.8427 850.488 29.47 849.847 29.21C849.223 28.9327 848.538 28.794 847.793 28.794C846.545 28.794 845.496 29.236 844.647 30.12C843.797 30.9867 843.373 32.0527 843.373 33.318ZM861.275 40.234C859.836 40.234 858.666 39.8613 857.765 39.116C856.863 38.3707 856.413 37.4 856.413 36.204C856.413 34.956 856.889 33.9767 857.843 33.266C858.796 32.538 860.105 32.174 861.769 32.174C862.41 32.174 863.034 32.2433 863.641 32.382C864.247 32.5033 864.828 32.6767 865.383 32.902V31.498C865.383 30.562 865.105 29.86 864.551 29.392C863.996 28.924 863.199 28.69 862.159 28.69C861.552 28.69 860.919 28.7853 860.261 28.976C859.602 29.1493 858.865 29.4267 858.051 29.808L857.089 27.858C858.077 27.39 859.013 27.052 859.897 26.844C860.781 26.6187 861.656 26.506 862.523 26.506C864.239 26.506 865.565 26.922 866.501 27.754C867.454 28.5687 867.931 29.73 867.931 31.238V40H865.383V38.856C864.793 39.324 864.161 39.6707 863.485 39.896C862.809 40.1213 862.072 40.234 861.275 40.234ZM858.909 36.152C858.909 36.7933 859.177 37.3133 859.715 37.712C860.269 38.1107 860.989 38.31 861.873 38.31C862.566 38.31 863.207 38.206 863.797 37.998C864.386 37.79 864.915 37.478 865.383 37.062V34.774C864.88 34.4967 864.351 34.2973 863.797 34.176C863.242 34.0373 862.635 33.968 861.977 33.968C861.041 33.968 860.295 34.1673 859.741 34.566C859.186 34.9647 858.909 35.4933 858.909 36.152ZM870.927 40V26.766H873.527V28.014C874.012 27.5287 874.567 27.156 875.191 26.896C875.815 26.636 876.499 26.506 877.245 26.506C878.129 26.506 878.926 26.7053 879.637 27.104C880.347 27.4853 880.911 28.0227 881.327 28.716C881.864 27.988 882.505 27.442 883.251 27.078C884.013 26.6967 884.863 26.506 885.799 26.506C887.255 26.506 888.442 26.9913 889.361 27.962C890.297 28.9153 890.765 30.1547 890.765 31.68V40H888.165V32.122C888.165 31.082 887.887 30.2673 887.333 29.678C886.795 29.0713 886.059 28.768 885.123 28.768C884.481 28.768 883.901 28.9153 883.381 29.21C882.861 29.5047 882.41 29.9467 882.029 30.536C882.063 30.7093 882.089 30.9 882.107 31.108C882.124 31.2987 882.133 31.4893 882.133 31.68V40H879.559V32.122C879.559 31.082 879.281 30.2673 878.727 29.678C878.189 29.0713 877.453 28.768 876.517 28.768C875.893 28.768 875.329 28.9067 874.827 29.184C874.324 29.444 873.891 29.8427 873.527 30.38V40H870.927ZM905.219 38.492C904.456 39.0813 903.659 39.5233 902.827 39.818C901.995 40.0953 901.085 40.234 900.097 40.234C899.126 40.234 898.216 40.0607 897.367 39.714C896.517 39.35 895.781 38.8647 895.157 38.258C894.533 37.6513 894.039 36.932 893.675 36.1C893.328 35.2507 893.155 34.3407 893.155 33.37C893.155 32.4167 893.328 31.524 893.675 30.692C894.021 29.86 894.489 29.1407 895.079 28.534C895.668 27.9273 896.37 27.4507 897.185 27.104C897.999 26.74 898.866 26.558 899.785 26.558C900.686 26.558 901.527 26.74 902.307 27.104C903.104 27.4507 903.78 27.936 904.335 28.56C904.907 29.1667 905.357 29.8947 905.687 30.744C906.016 31.5933 906.181 32.5033 906.181 33.474V34.228H895.729C895.902 35.32 896.405 36.23 897.237 36.958C898.069 37.6687 899.057 38.024 900.201 38.024C900.842 38.024 901.457 37.92 902.047 37.712C902.636 37.504 903.139 37.218 903.555 36.854L905.219 38.492ZM899.733 28.742C898.745 28.742 897.878 29.0713 897.133 29.73C896.405 30.3887 895.945 31.238 895.755 32.278H903.607C903.416 31.2727 902.957 30.432 902.229 29.756C901.518 29.08 900.686 28.742 899.733 28.742ZM915.807 36.724V28.95H912.999V26.766H915.807V23.386L918.381 22.762V26.766H922.281V28.95H918.381V36.126C918.381 36.802 918.528 37.2787 918.823 37.556C919.135 37.8333 919.637 37.972 920.331 37.972C920.695 37.972 921.015 37.9547 921.293 37.92C921.587 37.868 921.899 37.7813 922.229 37.66V39.844C921.882 39.9653 921.475 40.0607 921.007 40.13C920.556 40.1993 920.14 40.234 919.759 40.234C918.476 40.234 917.497 39.9393 916.821 39.35C916.145 38.7433 915.807 37.868 915.807 36.724ZM923.319 33.37C923.319 32.4167 923.492 31.524 923.839 30.692C924.203 29.8427 924.697 29.1147 925.321 28.508C925.945 27.884 926.673 27.3987 927.505 27.052C928.354 26.688 929.255 26.506 930.209 26.506C931.162 26.506 932.055 26.688 932.887 27.052C933.736 27.3987 934.464 27.884 935.071 28.508C935.695 29.1147 936.18 29.8427 936.527 30.692C936.891 31.524 937.073 32.4167 937.073 33.37C937.073 34.3407 936.891 35.2507 936.527 36.1C936.18 36.932 935.695 37.66 935.071 38.284C934.464 38.8907 933.736 39.376 932.887 39.74C932.055 40.0867 931.162 40.26 930.209 40.26C929.255 40.26 928.354 40.0867 927.505 39.74C926.673 39.376 925.945 38.8907 925.321 38.284C924.697 37.66 924.203 36.932 923.839 36.1C923.492 35.2507 923.319 34.3407 923.319 33.37ZM930.209 37.972C931.405 37.972 932.419 37.53 933.251 36.646C934.1 35.7447 934.525 34.6527 934.525 33.37C934.525 32.0873 934.1 31.004 933.251 30.12C932.419 29.236 931.405 28.794 930.209 28.794C929.013 28.794 927.99 29.236 927.141 30.12C926.291 31.004 925.867 32.0873 925.867 33.37C925.867 34.6527 926.283 35.7447 927.115 36.646C927.964 37.53 928.995 37.972 930.209 37.972ZM939.532 40V26.766H942.132V28.092C942.652 27.572 943.241 27.182 943.9 26.922C944.576 26.6447 945.313 26.506 946.11 26.506C947.618 26.506 948.857 26.9913 949.828 27.962C950.799 28.9153 951.284 30.1547 951.284 31.68V40H948.684V32.122C948.684 31.082 948.381 30.2673 947.774 29.678C947.185 29.0713 946.396 28.768 945.408 28.768C944.715 28.768 944.082 28.9153 943.51 29.21C942.955 29.5047 942.496 29.9293 942.132 30.484V40H939.532ZM955.584 24.634C955.151 24.634 954.778 24.478 954.466 24.166C954.154 23.8367 953.998 23.4553 953.998 23.022C953.998 22.5887 954.154 22.216 954.466 21.904C954.778 21.5747 955.151 21.41 955.584 21.41C956.017 21.41 956.39 21.5747 956.702 21.904C957.031 22.216 957.196 22.5887 957.196 23.022C957.196 23.4553 957.031 23.8367 956.702 24.166C956.39 24.478 956.017 24.634 955.584 24.634ZM956.884 26.766V40H954.284V26.766H956.884ZM966.004 40.104C965.085 40.104 964.219 39.9307 963.404 39.584C962.589 39.22 961.879 38.7347 961.272 38.128C960.683 37.5213 960.215 36.802 959.868 35.97C959.521 35.138 959.348 34.254 959.348 33.318C959.348 32.382 959.521 31.498 959.868 30.666C960.215 29.834 960.683 29.1147 961.272 28.508C961.879 27.9013 962.589 27.4247 963.404 27.078C964.236 26.714 965.12 26.532 966.056 26.532C966.767 26.532 967.451 26.6447 968.11 26.87C968.786 27.0953 969.41 27.4247 969.982 27.858V26.766H972.556V40.182C972.556 41.898 972.027 43.2153 970.97 44.134C969.93 45.07 968.439 45.538 966.498 45.538C965.545 45.538 964.6 45.4253 963.664 45.2C962.745 44.9747 961.913 44.654 961.168 44.238L962.182 42.21C962.927 42.5913 963.647 42.8773 964.34 43.068C965.033 43.2587 965.727 43.354 966.42 43.354C967.564 43.354 968.439 43.0853 969.046 42.548C969.653 42.0107 969.956 41.222 969.956 40.182V38.7C969.401 39.1507 968.786 39.4973 968.11 39.74C967.434 39.9827 966.732 40.104 966.004 40.104ZM961.896 33.318C961.896 34.5833 962.321 35.658 963.17 36.542C964.019 37.4087 965.068 37.842 966.316 37.842C967.061 37.842 967.746 37.712 968.37 37.452C968.994 37.1747 969.523 36.7933 969.956 36.308V30.328C969.54 29.8427 969.011 29.47 968.37 29.21C967.746 28.9327 967.061 28.794 966.316 28.794C965.068 28.794 964.019 29.236 963.17 30.12C962.321 30.9867 961.896 32.0527 961.896 33.318ZM975.612 40V21.8L978.212 21.228V28.092C978.732 27.572 979.321 27.182 979.98 26.922C980.656 26.6447 981.393 26.506 982.19 26.506C983.698 26.506 984.937 26.9913 985.908 27.962C986.879 28.9153 987.364 30.1547 987.364 31.68V40H984.764V32.122C984.764 31.082 984.461 30.2673 983.854 29.678C983.265 29.0713 982.476 28.768 981.488 28.768C980.795 28.768 980.162 28.9153 979.59 29.21C979.035 29.5047 978.576 29.9293 978.212 30.484V40H975.612ZM991.572 36.724V28.95H988.764V26.766H991.572V23.386L994.146 22.762V26.766H998.046V28.95H994.146V36.126C994.146 36.802 994.294 37.2787 994.588 37.556C994.9 37.8333 995.403 37.972 996.096 37.972C996.46 37.972 996.781 37.9547 997.058 37.92C997.353 37.868 997.665 37.7813 997.994 37.66V39.844C997.648 39.9653 997.24 40.0607 996.772 40.13C996.322 40.1993 995.906 40.234 995.524 40.234C994.242 40.234 993.262 39.9393 992.586 39.35C991.91 38.7433 991.572 37.868 991.572 36.724ZM1000.32 34.8L999.985 21.15H1002.66L1002.35 34.8H1000.32ZM1001.34 40.208C1000.89 40.208 1000.5 40.0433 1000.17 39.714C999.838 39.3847 999.673 38.9947 999.673 38.544C999.673 38.0933 999.838 37.712 1000.17 37.4C1000.5 37.0707 1000.89 36.906 1001.34 36.906C1001.79 36.906 1002.17 37.0707 1002.48 37.4C1002.81 37.712 1002.98 38.0933 1002.98 38.544C1002.98 38.9947 1002.81 39.3847 1002.48 39.714C1002.17 40.0433 1001.79 40.208 1001.34 40.208ZM619.95 74L621.51 68.566H618.78V66.642H622.056L623.044 63.158H620.08V61.234H623.59L625.15 55.8H627.516L625.956 61.234H630.61L632.17 55.8H634.51L632.95 61.234H635.706V63.158H632.404L631.416 66.642H634.406V68.566H630.87L629.31 74H626.97L628.53 68.566H623.876L622.316 74H619.95ZM624.422 66.642H629.076L630.064 63.158H625.41L624.422 66.642ZM636.926 60.766H639.994V58.764C639.994 57.3947 640.376 56.346 641.138 55.618C641.918 54.8727 643.036 54.5 644.492 54.5C644.839 54.5 645.168 54.526 645.48 54.578C645.792 54.6127 646.087 54.6647 646.364 54.734V56.996C646.052 56.9093 645.775 56.8487 645.532 56.814C645.29 56.7793 645.021 56.762 644.726 56.762C644.016 56.762 643.478 56.9353 643.114 57.282C642.768 57.6113 642.594 58.1227 642.594 58.816V60.766H646.364V62.95H642.594V74H639.994V62.95H636.926V60.766ZM647.196 67.37C647.196 66.4167 647.369 65.524 647.716 64.692C648.08 63.8427 648.574 63.1147 649.198 62.508C649.822 61.884 650.55 61.3987 651.382 61.052C652.231 60.688 653.132 60.506 654.086 60.506C655.039 60.506 655.932 60.688 656.764 61.052C657.613 61.3987 658.341 61.884 658.948 62.508C659.572 63.1147 660.057 63.8427 660.404 64.692C660.768 65.524 660.95 66.4167 660.95 67.37C660.95 68.3407 660.768 69.2507 660.404 70.1C660.057 70.932 659.572 71.66 658.948 72.284C658.341 72.8907 657.613 73.376 656.764 73.74C655.932 74.0867 655.039 74.26 654.086 74.26C653.132 74.26 652.231 74.0867 651.382 73.74C650.55 73.376 649.822 72.8907 649.198 72.284C648.574 71.66 648.08 70.932 647.716 70.1C647.369 69.2507 647.196 68.3407 647.196 67.37ZM654.086 71.972C655.282 71.972 656.296 71.53 657.128 70.646C657.977 69.7447 658.402 68.6527 658.402 67.37C658.402 66.0873 657.977 65.004 657.128 64.12C656.296 63.236 655.282 62.794 654.086 62.794C652.89 62.794 651.867 63.236 651.018 64.12C650.168 65.004 649.744 66.0873 649.744 67.37C649.744 68.6527 650.16 69.7447 650.992 70.646C651.841 71.53 652.872 71.972 654.086 71.972ZM662.862 67.37C662.862 66.4167 663.035 65.524 663.382 64.692C663.746 63.8427 664.24 63.1147 664.864 62.508C665.488 61.884 666.216 61.3987 667.048 61.052C667.897 60.688 668.798 60.506 669.752 60.506C670.705 60.506 671.598 60.688 672.43 61.052C673.279 61.3987 674.007 61.884 674.614 62.508C675.238 63.1147 675.723 63.8427 676.07 64.692C676.434 65.524 676.616 66.4167 676.616 67.37C676.616 68.3407 676.434 69.2507 676.07 70.1C675.723 70.932 675.238 71.66 674.614 72.284C674.007 72.8907 673.279 73.376 672.43 73.74C671.598 74.0867 670.705 74.26 669.752 74.26C668.798 74.26 667.897 74.0867 667.048 73.74C666.216 73.376 665.488 72.8907 664.864 72.284C664.24 71.66 663.746 70.932 663.382 70.1C663.035 69.2507 662.862 68.3407 662.862 67.37ZM669.752 71.972C670.948 71.972 671.962 71.53 672.794 70.646C673.643 69.7447 674.068 68.6527 674.068 67.37C674.068 66.0873 673.643 65.004 672.794 64.12C671.962 63.236 670.948 62.794 669.752 62.794C668.556 62.794 667.533 63.236 666.684 64.12C665.834 65.004 665.41 66.0873 665.41 67.37C665.41 68.6527 665.826 69.7447 666.658 70.646C667.507 71.53 668.538 71.972 669.752 71.972ZM679.979 70.724V62.95H677.171V60.766H679.979V57.386L682.553 56.762V60.766H686.453V62.95H682.553V70.126C682.553 70.802 682.7 71.2787 682.995 71.556C683.307 71.8333 683.809 71.972 684.503 71.972C684.867 71.972 685.187 71.9547 685.465 71.92C685.759 71.868 686.071 71.7813 686.401 71.66V73.844C686.054 73.9653 685.647 74.0607 685.179 74.13C684.728 74.1993 684.312 74.234 683.931 74.234C682.648 74.234 681.669 73.9393 680.993 73.35C680.317 72.7433 679.979 71.868 679.979 70.724ZM701.68 67.37C701.68 68.3233 701.507 69.2247 701.16 70.074C700.813 70.906 700.337 71.6253 699.73 72.232C699.141 72.8387 698.43 73.324 697.598 73.688C696.766 74.0347 695.882 74.208 694.946 74.208C694.201 74.208 693.49 74.0953 692.814 73.87C692.138 73.6447 691.514 73.3153 690.942 72.882V74H688.368V55.8L690.968 55.228V62.014C691.505 61.546 692.121 61.1907 692.814 60.948C693.507 60.688 694.235 60.558 694.998 60.558C695.934 60.558 696.809 60.74 697.624 61.104C698.439 61.4507 699.141 61.9273 699.73 62.534C700.337 63.1407 700.813 63.86 701.16 64.692C701.507 65.524 701.68 66.4167 701.68 67.37ZM694.66 62.82C693.915 62.82 693.221 62.9587 692.58 63.236C691.939 63.5133 691.401 63.9033 690.968 64.406V70.386C691.384 70.8713 691.913 71.2527 692.554 71.53C693.213 71.8073 693.915 71.946 694.66 71.946C695.925 71.946 696.983 71.5127 697.832 70.646C698.699 69.7793 699.132 68.696 699.132 67.396C699.132 66.096 698.699 65.0127 697.832 64.146C696.965 63.262 695.908 62.82 694.66 62.82ZM708.474 74.234C707.035 74.234 705.865 73.8613 704.964 73.116C704.063 72.3707 703.612 71.4 703.612 70.204C703.612 68.956 704.089 67.9767 705.042 67.266C705.995 66.538 707.304 66.174 708.968 66.174C709.609 66.174 710.233 66.2433 710.84 66.382C711.447 66.5033 712.027 66.6767 712.582 66.902V65.498C712.582 64.562 712.305 63.86 711.75 63.392C711.195 62.924 710.398 62.69 709.358 62.69C708.751 62.69 708.119 62.7853 707.46 62.976C706.801 63.1493 706.065 63.4267 705.25 63.808L704.288 61.858C705.276 61.39 706.212 61.052 707.096 60.844C707.98 60.6187 708.855 60.506 709.722 60.506C711.438 60.506 712.764 60.922 713.7 61.754C714.653 62.5687 715.13 63.73 715.13 65.238V74H712.582V72.856C711.993 73.324 711.36 73.6707 710.684 73.896C710.008 74.1213 709.271 74.234 708.474 74.234ZM706.108 70.152C706.108 70.7933 706.377 71.3133 706.914 71.712C707.469 72.1107 708.188 72.31 709.072 72.31C709.765 72.31 710.407 72.206 710.996 71.998C711.585 71.79 712.114 71.478 712.582 71.062V68.774C712.079 68.4967 711.551 68.2973 710.996 68.176C710.441 68.0373 709.835 67.968 709.176 67.968C708.24 67.968 707.495 68.1673 706.94 68.566C706.385 68.9647 706.108 69.4933 706.108 70.152ZM720.726 55.228V74H718.126V55.8L720.726 55.228ZM726.388 55.228V74H723.788V55.8L726.388 55.228ZM735.3 74L736.86 68.566H734.13V66.642H737.406L738.394 63.158H735.43V61.234H738.94L740.5 55.8H742.866L741.306 61.234H745.96L747.52 55.8H749.86L748.3 61.234H751.056V63.158H747.754L746.766 66.642H749.756V68.566H746.22L744.66 74H742.32L743.88 68.566H739.226L737.666 74H735.3ZM739.772 66.642H744.426L745.414 63.158H740.76L739.772 66.642ZM759.426 74.104C758.507 74.104 757.641 73.9307 756.826 73.584C756.011 73.22 755.301 72.7347 754.694 72.128C754.105 71.5213 753.637 70.802 753.29 69.97C752.943 69.138 752.77 68.254 752.77 67.318C752.77 66.382 752.943 65.498 753.29 64.666C753.637 63.834 754.105 63.1147 754.694 62.508C755.301 61.9013 756.011 61.4247 756.826 61.078C757.658 60.714 758.542 60.532 759.478 60.532C760.189 60.532 760.873 60.6447 761.532 60.87C762.208 61.0953 762.832 61.4247 763.404 61.858V60.766H765.978V74.182C765.978 75.898 765.449 77.2153 764.392 78.134C763.352 79.07 761.861 79.538 759.92 79.538C758.967 79.538 758.022 79.4253 757.086 79.2C756.167 78.9747 755.335 78.654 754.59 78.238L755.604 76.21C756.349 76.5913 757.069 76.8773 757.762 77.068C758.455 77.2587 759.149 77.354 759.842 77.354C760.986 77.354 761.861 77.0853 762.468 76.548C763.075 76.0107 763.378 75.222 763.378 74.182V72.7C762.823 73.1507 762.208 73.4973 761.532 73.74C760.856 73.9827 760.154 74.104 759.426 74.104ZM755.318 67.318C755.318 68.5833 755.743 69.658 756.592 70.542C757.441 71.4087 758.49 71.842 759.738 71.842C760.483 71.842 761.168 71.712 761.792 71.452C762.416 71.1747 762.945 70.7933 763.378 70.308V64.328C762.962 63.8427 762.433 63.47 761.792 63.21C761.168 62.9327 760.483 62.794 759.738 62.794C758.49 62.794 757.441 63.236 756.592 64.12C755.743 64.9867 755.318 66.0527 755.318 67.318ZM773.22 74.234C771.781 74.234 770.611 73.8613 769.71 73.116C768.809 72.3707 768.358 71.4 768.358 70.204C768.358 68.956 768.835 67.9767 769.788 67.266C770.741 66.538 772.05 66.174 773.714 66.174C774.355 66.174 774.979 66.2433 775.586 66.382C776.193 66.5033 776.773 66.6767 777.328 66.902V65.498C777.328 64.562 777.051 63.86 776.496 63.392C775.941 62.924 775.144 62.69 774.104 62.69C773.497 62.69 772.865 62.7853 772.206 62.976C771.547 63.1493 770.811 63.4267 769.996 63.808L769.034 61.858C770.022 61.39 770.958 61.052 771.842 60.844C772.726 60.6187 773.601 60.506 774.468 60.506C776.184 60.506 777.51 60.922 778.446 61.754C779.399 62.5687 779.876 63.73 779.876 65.238V74H777.328V72.856C776.739 73.324 776.106 73.6707 775.43 73.896C774.754 74.1213 774.017 74.234 773.22 74.234ZM770.854 70.152C770.854 70.7933 771.123 71.3133 771.66 71.712C772.215 72.1107 772.934 72.31 773.818 72.31C774.511 72.31 775.153 72.206 775.742 71.998C776.331 71.79 776.86 71.478 777.328 71.062V68.774C776.825 68.4967 776.297 68.2973 775.742 68.176C775.187 68.0373 774.581 67.968 773.922 67.968C772.986 67.968 772.241 68.1673 771.686 68.566C771.131 68.9647 770.854 69.4933 770.854 70.152ZM782.872 74V60.766H785.472V62.014C785.957 61.5287 786.512 61.156 787.136 60.896C787.76 60.636 788.445 60.506 789.19 60.506C790.074 60.506 790.871 60.7053 791.582 61.104C792.293 61.4853 792.856 62.0227 793.272 62.716C793.809 61.988 794.451 61.442 795.196 61.078C795.959 60.6967 796.808 60.506 797.744 60.506C799.2 60.506 800.387 60.9913 801.306 61.962C802.242 62.9153 802.71 64.1547 802.71 65.68V74H800.11V66.122C800.11 65.082 799.833 64.2673 799.278 63.678C798.741 63.0713 798.004 62.768 797.068 62.768C796.427 62.768 795.846 62.9153 795.326 63.21C794.806 63.5047 794.355 63.9467 793.974 64.536C794.009 64.7093 794.035 64.9 794.052 65.108C794.069 65.2987 794.078 65.4893 794.078 65.68V74H791.504V66.122C791.504 65.082 791.227 64.2673 790.672 63.678C790.135 63.0713 789.398 62.768 788.462 62.768C787.838 62.768 787.275 62.9067 786.772 63.184C786.269 63.444 785.836 63.8427 785.472 64.38V74H782.872ZM817.164 72.492C816.401 73.0813 815.604 73.5233 814.772 73.818C813.94 74.0953 813.03 74.234 812.042 74.234C811.071 74.234 810.161 74.0607 809.312 73.714C808.463 73.35 807.726 72.8647 807.102 72.258C806.478 71.6513 805.984 70.932 805.62 70.1C805.273 69.2507 805.1 68.3407 805.1 67.37C805.1 66.4167 805.273 65.524 805.62 64.692C805.967 63.86 806.435 63.1407 807.024 62.534C807.613 61.9273 808.315 61.4507 809.13 61.104C809.945 60.74 810.811 60.558 811.73 60.558C812.631 60.558 813.472 60.74 814.252 61.104C815.049 61.4507 815.725 61.936 816.28 62.56C816.852 63.1667 817.303 63.8947 817.632 64.744C817.961 65.5933 818.126 66.5033 818.126 67.474V68.228H807.674C807.847 69.32 808.35 70.23 809.182 70.958C810.014 71.6687 811.002 72.024 812.146 72.024C812.787 72.024 813.403 71.92 813.992 71.712C814.581 71.504 815.084 71.218 815.5 70.854L817.164 72.492ZM811.678 62.742C810.69 62.742 809.823 63.0713 809.078 63.73C808.35 64.3887 807.891 65.238 807.7 66.278H815.552C815.361 65.2727 814.902 64.432 814.174 63.756C813.463 63.08 812.631 62.742 811.678 62.742ZM821.811 70.724V62.95H819.003V60.766H821.811V57.386L824.385 56.762V60.766H828.285V62.95H824.385V70.126C824.385 70.802 824.532 71.2787 824.827 71.556C825.139 71.8333 825.641 71.972 826.335 71.972C826.699 71.972 827.019 71.9547 827.297 71.92C827.591 71.868 827.903 71.7813 828.233 71.66V73.844C827.886 73.9653 827.479 74.0607 827.011 74.13C826.56 74.1993 826.144 74.234 825.763 74.234C824.48 74.234 823.501 73.9393 822.825 73.35C822.149 72.7433 821.811 71.868 821.811 70.724ZM831.5 58.634C831.067 58.634 830.694 58.478 830.382 58.166C830.07 57.8367 829.914 57.4553 829.914 57.022C829.914 56.5887 830.07 56.216 830.382 55.904C830.694 55.5747 831.067 55.41 831.5 55.41C831.933 55.41 832.306 55.5747 832.618 55.904C832.947 56.216 833.112 56.5887 833.112 57.022C833.112 57.4553 832.947 57.8367 832.618 58.166C832.306 58.478 831.933 58.634 831.5 58.634ZM832.8 60.766V74H830.2V60.766H832.8ZM835.862 74V60.766H838.462V62.014C838.947 61.5287 839.502 61.156 840.126 60.896C840.75 60.636 841.435 60.506 842.18 60.506C843.064 60.506 843.861 60.7053 844.572 61.104C845.283 61.4853 845.846 62.0227 846.262 62.716C846.799 61.988 847.441 61.442 848.186 61.078C848.949 60.6967 849.798 60.506 850.734 60.506C852.19 60.506 853.377 60.9913 854.296 61.962C855.232 62.9153 855.7 64.1547 855.7 65.68V74H853.1V66.122C853.1 65.082 852.823 64.2673 852.268 63.678C851.731 63.0713 850.994 62.768 850.058 62.768C849.417 62.768 848.836 62.9153 848.316 63.21C847.796 63.5047 847.345 63.9467 846.964 64.536C846.999 64.7093 847.025 64.9 847.042 65.108C847.059 65.2987 847.068 65.4893 847.068 65.68V74H844.494V66.122C844.494 65.082 844.217 64.2673 843.662 63.678C843.125 63.0713 842.388 62.768 841.452 62.768C840.828 62.768 840.265 62.9067 839.762 63.184C839.259 63.444 838.826 63.8427 838.462 64.38V74H835.862ZM870.154 72.492C869.392 73.0813 868.594 73.5233 867.762 73.818C866.93 74.0953 866.02 74.234 865.032 74.234C864.062 74.234 863.152 74.0607 862.302 73.714C861.453 73.35 860.716 72.8647 860.092 72.258C859.468 71.6513 858.974 70.932 858.61 70.1C858.264 69.2507 858.09 68.3407 858.09 67.37C858.09 66.4167 858.264 65.524 858.61 64.692C858.957 63.86 859.425 63.1407 860.014 62.534C860.604 61.9273 861.306 61.4507 862.12 61.104C862.935 60.74 863.802 60.558 864.72 60.558C865.622 60.558 866.462 60.74 867.242 61.104C868.04 61.4507 868.716 61.936 869.27 62.56C869.842 63.1667 870.293 63.8947 870.622 64.744C870.952 65.5933 871.116 66.5033 871.116 67.474V68.228H860.664C860.838 69.32 861.34 70.23 862.172 70.958C863.004 71.6687 863.992 72.024 865.136 72.024C865.778 72.024 866.393 71.92 866.982 71.712C867.572 71.504 868.074 71.218 868.49 70.854L870.154 72.492ZM864.668 62.742C863.68 62.742 862.814 63.0713 862.068 63.73C861.34 64.3887 860.881 65.238 860.69 66.278H868.542C868.352 65.2727 867.892 64.432 867.164 63.756C866.454 63.08 865.622 62.742 864.668 62.742Z" fill="black"/>
<g filter="url(#filter1_d)">
<rect width="471" height="96" rx="10" fill="white"/>
</g>
<path d="M18 40.8019L22.2183 20.9906L26.9179 20L24.3133 32.2264L31.1078 25.8302H36.5718L28.1918 33.3585L33.8257 40.8019H28.4183L23.8603 34.3774L22.5014 40.8019H18Z" fill="black"/>
<path d="M52 32.5943C52 33.7642 51.7736 34.8585 51.3206 35.8774C50.8865 36.8962 50.292 37.783 49.537 38.5377C48.8009 39.2925 47.9139 39.8962 46.8758 40.3491C45.8566 40.783 44.7714 41 43.6201 41C42.7708 41 41.9781 40.8679 41.242 40.6038C40.5248 40.3396 39.8736 39.9623 39.2885 39.4717L39.0054 40.8019H34.5607L38.779 20.9906L43.4785 20L42.1196 26.4245C42.6103 26.1792 43.1199 25.9906 43.6484 25.8585C44.1957 25.7075 44.7525 25.6321 45.3187 25.6321C46.2624 25.6321 47.14 25.8113 47.9516 26.1698C48.7632 26.5283 49.4615 27.0189 50.0466 27.6415C50.6506 28.2642 51.1224 29 51.4621 29.8491C51.8207 30.6981 52 31.6132 52 32.5943ZM44.0731 29.5094C43.5446 29.5094 43.0444 29.5943 42.5726 29.7642C42.1007 29.9151 41.6572 30.1604 41.242 30.5L40.1379 35.6509C40.4965 36.1038 40.9683 36.4623 41.5534 36.7264C42.1385 36.9717 42.7708 37.0943 43.4502 37.0943C44.6204 37.0943 45.6018 36.6981 46.3945 35.9057C47.2061 35.0943 47.6119 34.1226 47.6119 32.9906C47.6119 32.0094 47.2722 31.1887 46.5927 30.5283C45.9321 29.8491 45.0922 29.5094 44.0731 29.5094Z" fill="#297FFF"/>
<path d="M76.686 37.764C77.726 37.764 78.7227 37.556 79.676 37.14C80.6293 36.7067 81.4353 36.1 82.094 35.32L83.888 37.14C83.004 38.1107 81.912 38.882 80.612 39.454C79.3293 40.0087 77.9947 40.286 76.608 40.286C75.2733 40.286 74.0167 40.0433 72.838 39.558C71.6767 39.0727 70.6713 38.414 69.822 37.582C68.9727 36.7327 68.2967 35.736 67.794 34.592C67.3087 33.4307 67.066 32.2 67.066 30.9C67.066 29.5827 67.3087 28.352 67.794 27.208C68.2967 26.064 68.9727 25.076 69.822 24.244C70.6713 23.3947 71.6767 22.7273 72.838 22.242C74.0167 21.7567 75.2733 21.514 76.608 21.514C78.0293 21.514 79.39 21.8 80.69 22.372C82.0073 22.9267 83.0907 23.6893 83.94 24.66L82.12 26.532C81.4267 25.7347 80.5947 25.1193 79.624 24.686C78.6533 24.2527 77.648 24.036 76.608 24.036C75.6547 24.036 74.762 24.2093 73.93 24.556C73.098 24.9027 72.3787 25.388 71.772 26.012C71.1827 26.6187 70.7147 27.3467 70.368 28.196C70.0213 29.028 69.848 29.9293 69.848 30.9C69.848 31.8707 70.0213 32.7807 70.368 33.63C70.7147 34.462 71.1913 35.1813 71.798 35.788C72.4047 36.3947 73.124 36.88 73.956 37.244C74.8053 37.5907 75.7153 37.764 76.686 37.764ZM90.4329 40.234C88.9942 40.234 87.8242 39.8613 86.9229 39.116C86.0216 38.3707 85.5709 37.4 85.5709 36.204C85.5709 34.956 86.0476 33.9767 87.0009 33.266C87.9542 32.538 89.2629 32.174 90.9269 32.174C91.5682 32.174 92.1922 32.2433 92.7989 32.382C93.4056 32.5033 93.9862 32.6767 94.5409 32.902V31.498C94.5409 30.562 94.2636 29.86 93.7089 29.392C93.1542 28.924 92.3569 28.69 91.3169 28.69C90.7102 28.69 90.0776 28.7853 89.4189 28.976C88.7602 29.1493 88.0236 29.4267 87.2089 29.808L86.2469 27.858C87.2349 27.39 88.1709 27.052 89.0549 26.844C89.9389 26.6187 90.8142 26.506 91.6809 26.506C93.3969 26.506 94.7229 26.922 95.6589 27.754C96.6122 28.5687 97.0889 29.73 97.0889 31.238V40H94.5409V38.856C93.9516 39.324 93.3189 39.6707 92.6429 39.896C91.9669 40.1213 91.2302 40.234 90.4329 40.234ZM88.0669 36.152C88.0669 36.7933 88.3356 37.3133 88.8729 37.712C89.4276 38.1107 90.1469 38.31 91.0309 38.31C91.7242 38.31 92.3656 38.206 92.9549 37.998C93.5442 37.79 94.0729 37.478 94.5409 37.062V34.774C94.0382 34.4967 93.5096 34.2973 92.9549 34.176C92.4002 34.0373 91.7936 33.968 91.1349 33.968C90.1989 33.968 89.4536 34.1673 88.8989 34.566C88.3442 34.9647 88.0669 35.4933 88.0669 36.152ZM100.085 40V26.766H102.685V28.092C103.205 27.572 103.794 27.182 104.453 26.922C105.129 26.6447 105.865 26.506 106.663 26.506C108.171 26.506 109.41 26.9913 110.381 27.962C111.351 28.9153 111.837 30.1547 111.837 31.68V40H109.237V32.122C109.237 31.082 108.933 30.2673 108.327 29.678C107.737 29.0713 106.949 28.768 105.961 28.768C105.267 28.768 104.635 28.9153 104.063 29.21C103.508 29.5047 103.049 29.9293 102.685 30.484V40H100.085ZM115.293 21.046H118.049L115.657 27.104H113.681L115.293 21.046ZM121.301 36.724V28.95H118.493V26.766H121.301V23.386L123.875 22.762V26.766H127.775V28.95H123.875V36.126C123.875 36.802 124.022 37.2787 124.317 37.556C124.629 37.8333 125.131 37.972 125.825 37.972C126.189 37.972 126.509 37.9547 126.787 37.92C127.081 37.868 127.393 37.7813 127.723 37.66V39.844C127.376 39.9653 126.969 40.0607 126.501 40.13C126.05 40.1993 125.634 40.234 125.253 40.234C123.97 40.234 122.991 39.9393 122.315 39.35C121.639 38.7433 121.301 37.868 121.301 36.724ZM140.116 40H137.594L133.902 26.766H136.424L138.972 36.49L142.014 26.766H144.25L147.266 36.49L149.84 26.766H152.284L148.566 40H146.07L143.106 30.302L140.116 40ZM158.226 40.234C156.787 40.234 155.617 39.8613 154.716 39.116C153.815 38.3707 153.364 37.4 153.364 36.204C153.364 34.956 153.841 33.9767 154.794 33.266C155.747 32.538 157.056 32.174 158.72 32.174C159.361 32.174 159.985 32.2433 160.592 32.382C161.199 32.5033 161.779 32.6767 162.334 32.902V31.498C162.334 30.562 162.057 29.86 161.502 29.392C160.947 28.924 160.15 28.69 159.11 28.69C158.503 28.69 157.871 28.7853 157.212 28.976C156.553 29.1493 155.817 29.4267 155.002 29.808L154.04 27.858C155.028 27.39 155.964 27.052 156.848 26.844C157.732 26.6187 158.607 26.506 159.474 26.506C161.19 26.506 162.516 26.922 163.452 27.754C164.405 28.5687 164.882 29.73 164.882 31.238V40H162.334V38.856C161.745 39.324 161.112 39.6707 160.436 39.896C159.76 40.1213 159.023 40.234 158.226 40.234ZM155.86 36.152C155.86 36.7933 156.129 37.3133 156.666 37.712C157.221 38.1107 157.94 38.31 158.824 38.31C159.517 38.31 160.159 38.206 160.748 37.998C161.337 37.79 161.866 37.478 162.334 37.062V34.774C161.831 34.4967 161.303 34.2973 160.748 34.176C160.193 34.0373 159.587 33.968 158.928 33.968C157.992 33.968 157.247 34.1673 156.692 34.566C156.137 34.9647 155.86 35.4933 155.86 36.152ZM169.178 24.634C168.744 24.634 168.372 24.478 168.06 24.166C167.748 23.8367 167.592 23.4553 167.592 23.022C167.592 22.5887 167.748 22.216 168.06 21.904C168.372 21.5747 168.744 21.41 169.178 21.41C169.611 21.41 169.984 21.5747 170.296 21.904C170.625 22.216 170.79 22.5887 170.79 23.022C170.79 23.4553 170.625 23.8367 170.296 24.166C169.984 24.478 169.611 24.634 169.178 24.634ZM170.478 26.766V40H167.878V26.766H170.478ZM175.256 36.724V28.95H172.448V26.766H175.256V23.386L177.83 22.762V26.766H181.73V28.95H177.83V36.126C177.83 36.802 177.977 37.2787 178.272 37.556C178.584 37.8333 179.087 37.972 179.78 37.972C180.144 37.972 180.465 37.9547 180.742 37.92C181.037 37.868 181.349 37.7813 181.678 37.66V39.844C181.331 39.9653 180.924 40.0607 180.456 40.13C180.005 40.1993 179.589 40.234 179.208 40.234C177.925 40.234 176.946 39.9393 176.27 39.35C175.594 38.7433 175.256 37.868 175.256 36.724ZM187.987 26.766H191.055V24.764C191.055 23.3947 191.436 22.346 192.199 21.618C192.979 20.8727 194.097 20.5 195.553 20.5C195.9 20.5 196.229 20.526 196.541 20.578C196.853 20.6127 197.148 20.6647 197.425 20.734V22.996C197.113 22.9093 196.836 22.8487 196.593 22.814C196.35 22.7793 196.082 22.762 195.787 22.762C195.076 22.762 194.539 22.9353 194.175 23.282C193.828 23.6113 193.655 24.1227 193.655 24.816V26.766H197.425V28.95H193.655V40H191.055V28.95H187.987V26.766ZM198.256 33.37C198.256 32.4167 198.43 31.524 198.776 30.692C199.14 29.8427 199.634 29.1147 200.258 28.508C200.882 27.884 201.61 27.3987 202.442 27.052C203.292 26.688 204.193 26.506 205.146 26.506C206.1 26.506 206.992 26.688 207.824 27.052C208.674 27.3987 209.402 27.884 210.008 28.508C210.632 29.1147 211.118 29.8427 211.464 30.692C211.828 31.524 212.01 32.4167 212.01 33.37C212.01 34.3407 211.828 35.2507 211.464 36.1C211.118 36.932 210.632 37.66 210.008 38.284C209.402 38.8907 208.674 39.376 207.824 39.74C206.992 40.0867 206.1 40.26 205.146 40.26C204.193 40.26 203.292 40.0867 202.442 39.74C201.61 39.376 200.882 38.8907 200.258 38.284C199.634 37.66 199.14 36.932 198.776 36.1C198.43 35.2507 198.256 34.3407 198.256 33.37ZM205.146 37.972C206.342 37.972 207.356 37.53 208.188 36.646C209.038 35.7447 209.462 34.6527 209.462 33.37C209.462 32.0873 209.038 31.004 208.188 30.12C207.356 29.236 206.342 28.794 205.146 28.794C203.95 28.794 202.928 29.236 202.078 30.12C201.229 31.004 200.804 32.0873 200.804 33.37C200.804 34.6527 201.22 35.7447 202.052 36.646C202.902 37.53 203.933 37.972 205.146 37.972ZM214.47 40V26.766H217.07V28.456C217.468 27.8147 217.98 27.3293 218.604 27C219.228 26.6533 219.93 26.48 220.71 26.48C220.987 26.48 221.23 26.4973 221.438 26.532C221.646 26.5667 221.845 26.6187 222.036 26.688V29.028C221.793 28.9413 221.542 28.872 221.282 28.82C221.022 28.768 220.762 28.742 220.502 28.742C219.739 28.742 219.054 28.95 218.448 29.366C217.858 29.7647 217.399 30.3627 217.07 31.16V40H214.47ZM231.268 36.724V28.95H228.46V26.766H231.268V23.386L233.842 22.762V26.766H237.742V28.95H233.842V36.126C233.842 36.802 233.989 37.2787 234.284 37.556C234.596 37.8333 235.098 37.972 235.792 37.972C236.156 37.972 236.476 37.9547 236.754 37.92C237.048 37.868 237.36 37.7813 237.69 37.66V39.844C237.343 39.9653 236.936 40.0607 236.468 40.13C236.017 40.1993 235.601 40.234 235.22 40.234C233.937 40.234 232.958 39.9393 232.282 39.35C231.606 38.7433 231.268 37.868 231.268 36.724ZM239.657 40V21.8L242.257 21.228V28.092C242.777 27.572 243.366 27.182 244.025 26.922C244.701 26.6447 245.438 26.506 246.235 26.506C247.743 26.506 248.982 26.9913 249.953 27.962C250.924 28.9153 251.409 30.1547 251.409 31.68V40H248.809V32.122C248.809 31.082 248.506 30.2673 247.899 29.678C247.31 29.0713 246.521 28.768 245.533 28.768C244.84 28.768 244.207 28.9153 243.635 29.21C243.08 29.5047 242.621 29.9293 242.257 30.484V40H239.657ZM265.875 38.492C265.112 39.0813 264.315 39.5233 263.483 39.818C262.651 40.0953 261.741 40.234 260.753 40.234C259.782 40.234 258.872 40.0607 258.023 39.714C257.174 39.35 256.437 38.8647 255.813 38.258C255.189 37.6513 254.695 36.932 254.331 36.1C253.984 35.2507 253.811 34.3407 253.811 33.37C253.811 32.4167 253.984 31.524 254.331 30.692C254.678 29.86 255.146 29.1407 255.735 28.534C256.324 27.9273 257.026 27.4507 257.841 27.104C258.656 26.74 259.522 26.558 260.441 26.558C261.342 26.558 262.183 26.74 262.963 27.104C263.76 27.4507 264.436 27.936 264.991 28.56C265.563 29.1667 266.014 29.8947 266.343 30.744C266.672 31.5933 266.837 32.5033 266.837 33.474V34.228H256.385C256.558 35.32 257.061 36.23 257.893 36.958C258.725 37.6687 259.713 38.024 260.857 38.024C261.498 38.024 262.114 37.92 262.703 37.712C263.292 37.504 263.795 37.218 264.211 36.854L265.875 38.492ZM260.389 28.742C259.401 28.742 258.534 29.0713 257.789 29.73C257.061 30.3887 256.602 31.238 256.411 32.278H264.263C264.072 31.2727 263.613 30.432 262.885 29.756C262.174 29.08 261.342 28.742 260.389 28.742ZM274.747 40V26.766H277.347V28.092C277.867 27.572 278.456 27.182 279.115 26.922C279.791 26.6447 280.528 26.506 281.325 26.506C282.833 26.506 284.072 26.9913 285.043 27.962C286.014 28.9153 286.499 30.1547 286.499 31.68V40H283.899V32.122C283.899 31.082 283.596 30.2673 282.989 29.678C282.4 29.0713 281.611 28.768 280.623 28.768C279.93 28.768 279.297 28.9153 278.725 29.21C278.17 29.5047 277.711 29.9293 277.347 30.484V40H274.747ZM300.965 38.492C300.202 39.0813 299.405 39.5233 298.573 39.818C297.741 40.0953 296.831 40.234 295.843 40.234C294.872 40.234 293.962 40.0607 293.113 39.714C292.264 39.35 291.527 38.8647 290.903 38.258C290.279 37.6513 289.785 36.932 289.421 36.1C289.074 35.2507 288.901 34.3407 288.901 33.37C288.901 32.4167 289.074 31.524 289.421 30.692C289.768 29.86 290.236 29.1407 290.825 28.534C291.414 27.9273 292.116 27.4507 292.931 27.104C293.746 26.74 294.612 26.558 295.531 26.558C296.432 26.558 297.273 26.74 298.053 27.104C298.85 27.4507 299.526 27.936 300.081 28.56C300.653 29.1667 301.104 29.8947 301.433 30.744C301.762 31.5933 301.927 32.5033 301.927 33.474V34.228H291.475C291.648 35.32 292.151 36.23 292.983 36.958C293.815 37.6687 294.803 38.024 295.947 38.024C296.588 38.024 297.204 37.92 297.793 37.712C298.382 37.504 298.885 37.218 299.301 36.854L300.965 38.492ZM295.479 28.742C294.491 28.742 293.624 29.0713 292.879 29.73C292.151 30.3887 291.692 31.238 291.501 32.278H299.353C299.162 31.2727 298.703 30.432 297.975 29.756C297.264 29.08 296.432 28.742 295.479 28.742ZM309.141 40H306.619L302.927 26.766H305.449L307.997 36.49L311.039 26.766H313.275L316.291 36.49L318.865 26.766H321.309L317.591 40H315.095L312.131 30.302L309.141 40ZM327.352 38.284L328.756 36.568C329.45 37.1053 330.152 37.5213 330.862 37.816C331.59 38.0933 332.327 38.232 333.072 38.232C334.008 38.232 334.771 38.05 335.36 37.686C335.95 37.322 336.244 36.8453 336.244 36.256C336.244 35.788 336.071 35.4153 335.724 35.138C335.378 34.8607 334.84 34.67 334.112 34.566L331.72 34.228C330.42 34.0373 329.432 33.6387 328.756 33.032C328.098 32.408 327.768 31.5847 327.768 30.562C327.768 29.366 328.245 28.404 329.198 27.676C330.152 26.9307 331.4 26.558 332.942 26.558C333.913 26.558 334.832 26.6967 335.698 26.974C336.582 27.2513 337.44 27.676 338.272 28.248L336.946 29.964C336.218 29.4787 335.508 29.132 334.814 28.924C334.138 28.6987 333.454 28.586 332.76 28.586C331.963 28.586 331.322 28.7507 330.836 29.08C330.351 29.4093 330.108 29.8427 330.108 30.38C330.108 30.8653 330.273 31.238 330.602 31.498C330.949 31.7407 331.512 31.9227 332.292 32.044L334.684 32.382C335.984 32.5727 336.972 32.98 337.648 33.604C338.342 34.228 338.688 35.0513 338.688 36.074C338.688 36.6633 338.541 37.218 338.246 37.738C337.969 38.2407 337.579 38.674 337.076 39.038C336.591 39.402 336.01 39.6967 335.334 39.922C334.658 40.13 333.93 40.234 333.15 40.234C332.006 40.234 330.932 40.0693 329.926 39.74C328.938 39.4107 328.08 38.9253 327.352 38.284ZM352.279 38.492C351.517 39.0813 350.719 39.5233 349.887 39.818C349.055 40.0953 348.145 40.234 347.157 40.234C346.187 40.234 345.277 40.0607 344.427 39.714C343.578 39.35 342.841 38.8647 342.217 38.258C341.593 37.6513 341.099 36.932 340.735 36.1C340.389 35.2507 340.215 34.3407 340.215 33.37C340.215 32.4167 340.389 31.524 340.735 30.692C341.082 29.86 341.55 29.1407 342.139 28.534C342.729 27.9273 343.431 27.4507 344.245 27.104C345.06 26.74 345.927 26.558 346.845 26.558C347.747 26.558 348.587 26.74 349.367 27.104C350.165 27.4507 350.841 27.936 351.395 28.56C351.967 29.1667 352.418 29.8947 352.747 30.744C353.077 31.5933 353.241 32.5033 353.241 33.474V34.228H342.789C342.963 35.32 343.465 36.23 344.297 36.958C345.129 37.6687 346.117 38.024 347.261 38.024C347.903 38.024 348.518 37.92 349.107 37.712C349.697 37.504 350.199 37.218 350.615 36.854L352.279 38.492ZM346.793 28.742C345.805 28.742 344.939 29.0713 344.193 29.73C343.465 30.3887 343.006 31.238 342.815 32.278H350.667C350.477 31.2727 350.017 30.432 349.289 29.756C348.579 29.08 347.747 28.742 346.793 28.742ZM359.751 40.234C358.313 40.234 357.143 39.8613 356.241 39.116C355.34 38.3707 354.889 37.4 354.889 36.204C354.889 34.956 355.366 33.9767 356.319 33.266C357.273 32.538 358.581 32.174 360.245 32.174C360.887 32.174 361.511 32.2433 362.117 32.382C362.724 32.5033 363.305 32.6767 363.859 32.902V31.498C363.859 30.562 363.582 29.86 363.027 29.392C362.473 28.924 361.675 28.69 360.635 28.69C360.029 28.69 359.396 28.7853 358.737 28.976C358.079 29.1493 357.342 29.4267 356.527 29.808L355.565 27.858C356.553 27.39 357.489 27.052 358.373 26.844C359.257 26.6187 360.133 26.506 360.999 26.506C362.715 26.506 364.041 26.922 364.977 27.754C365.931 28.5687 366.407 29.73 366.407 31.238V40H363.859V38.856C363.27 39.324 362.637 39.6707 361.961 39.896C361.285 40.1213 360.549 40.234 359.751 40.234ZM357.385 36.152C357.385 36.7933 357.654 37.3133 358.191 37.712C358.746 38.1107 359.465 38.31 360.349 38.31C361.043 38.31 361.684 38.206 362.273 37.998C362.863 37.79 363.391 37.478 363.859 37.062V34.774C363.357 34.4967 362.828 34.2973 362.273 34.176C361.719 34.0373 361.112 33.968 360.453 33.968C359.517 33.968 358.772 34.1673 358.217 34.566C357.663 34.9647 357.385 35.4933 357.385 36.152ZM368.155 38.284L369.559 36.568C370.252 37.1053 370.954 37.5213 371.665 37.816C372.393 38.0933 373.13 38.232 373.875 38.232C374.811 38.232 375.574 38.05 376.163 37.686C376.752 37.322 377.047 36.8453 377.047 36.256C377.047 35.788 376.874 35.4153 376.527 35.138C376.18 34.8607 375.643 34.67 374.915 34.566L372.523 34.228C371.223 34.0373 370.235 33.6387 369.559 33.032C368.9 32.408 368.571 31.5847 368.571 30.562C368.571 29.366 369.048 28.404 370.001 27.676C370.954 26.9307 372.202 26.558 373.745 26.558C374.716 26.558 375.634 26.6967 376.501 26.974C377.385 27.2513 378.243 27.676 379.075 28.248L377.749 29.964C377.021 29.4787 376.31 29.132 375.617 28.924C374.941 28.6987 374.256 28.586 373.563 28.586C372.766 28.586 372.124 28.7507 371.639 29.08C371.154 29.4093 370.911 29.8427 370.911 30.38C370.911 30.8653 371.076 31.238 371.405 31.498C371.752 31.7407 372.315 31.9227 373.095 32.044L375.487 32.382C376.787 32.5727 377.775 32.98 378.451 33.604C379.144 34.228 379.491 35.0513 379.491 36.074C379.491 36.6633 379.344 37.218 379.049 37.738C378.772 38.2407 378.382 38.674 377.879 39.038C377.394 39.402 376.813 39.6967 376.137 39.922C375.461 40.13 374.733 40.234 373.953 40.234C372.809 40.234 371.734 40.0693 370.729 39.74C369.741 39.4107 368.883 38.9253 368.155 38.284ZM381.018 33.37C381.018 32.4167 381.191 31.524 381.538 30.692C381.902 29.8427 382.396 29.1147 383.02 28.508C383.644 27.884 384.372 27.3987 385.204 27.052C386.053 26.688 386.955 26.506 387.908 26.506C388.861 26.506 389.754 26.688 390.586 27.052C391.435 27.3987 392.163 27.884 392.77 28.508C393.394 29.1147 393.879 29.8427 394.226 30.692C394.59 31.524 394.772 32.4167 394.772 33.37C394.772 34.3407 394.59 35.2507 394.226 36.1C393.879 36.932 393.394 37.66 392.77 38.284C392.163 38.8907 391.435 39.376 390.586 39.74C389.754 40.0867 388.861 40.26 387.908 40.26C386.955 40.26 386.053 40.0867 385.204 39.74C384.372 39.376 383.644 38.8907 383.02 38.284C382.396 37.66 381.902 36.932 381.538 36.1C381.191 35.2507 381.018 34.3407 381.018 33.37ZM387.908 37.972C389.104 37.972 390.118 37.53 390.95 36.646C391.799 35.7447 392.224 34.6527 392.224 33.37C392.224 32.0873 391.799 31.004 390.95 30.12C390.118 29.236 389.104 28.794 387.908 28.794C386.712 28.794 385.689 29.236 384.84 30.12C383.991 31.004 383.566 32.0873 383.566 33.37C383.566 34.6527 383.982 35.7447 384.814 36.646C385.663 37.53 386.695 37.972 387.908 37.972ZM397.231 40V26.766H399.831V28.092C400.351 27.572 400.941 27.182 401.599 26.922C402.275 26.6447 403.012 26.506 403.809 26.506C405.317 26.506 406.557 26.9913 407.527 27.962C408.498 28.9153 408.983 30.1547 408.983 31.68V40H406.383V32.122C406.383 31.082 406.08 30.2673 405.473 29.678C404.884 29.0713 404.095 28.768 403.107 28.768C402.414 28.768 401.781 28.9153 401.209 29.21C400.655 29.5047 400.195 29.9293 399.831 30.484V40H397.231ZM67.534 79.382V60.766H70.108V62.04C70.6453 61.5547 71.2607 61.1907 71.954 60.948C72.6473 60.688 73.384 60.558 74.164 60.558C75.1 60.558 75.9753 60.74 76.79 61.104C77.6047 61.4507 78.3067 61.9273 78.896 62.534C79.5027 63.1407 79.9793 63.86 80.326 64.692C80.6727 65.524 80.846 66.4167 80.846 67.37C80.846 68.3233 80.6727 69.2247 80.326 70.074C79.9793 70.906 79.5027 71.6253 78.896 72.232C78.3067 72.8387 77.596 73.324 76.764 73.688C75.932 74.0347 75.048 74.208 74.112 74.208C73.384 74.208 72.6733 74.0953 71.98 73.87C71.304 73.6447 70.6887 73.324 70.134 72.908V79.382H67.534ZM73.826 62.82C73.0807 62.82 72.3873 62.9587 71.746 63.236C71.1047 63.5133 70.5673 63.9033 70.134 64.406V70.386C70.55 70.8713 71.0787 71.2527 71.72 71.53C72.3787 71.8073 73.0807 71.946 73.826 71.946C75.0913 71.946 76.1487 71.5127 76.998 70.646C77.8647 69.7793 78.298 68.696 78.298 67.396C78.298 66.096 77.8647 65.0127 76.998 64.146C76.1313 63.262 75.074 62.82 73.826 62.82ZM83.327 74V60.766H85.927V62.456C86.3256 61.8147 86.837 61.3293 87.461 61C88.085 60.6533 88.787 60.48 89.567 60.48C89.8443 60.48 90.087 60.4973 90.295 60.532C90.503 60.5667 90.7023 60.6187 90.893 60.688V63.028C90.6503 62.9413 90.399 62.872 90.139 62.82C89.879 62.768 89.619 62.742 89.359 62.742C88.5963 62.742 87.9116 62.95 87.305 63.366C86.7156 63.7647 86.2563 64.3627 85.927 65.16V74H83.327ZM103.629 72.492C102.866 73.0813 102.069 73.5233 101.237 73.818C100.405 74.0953 99.4949 74.234 98.5069 74.234C97.5362 74.234 96.6262 74.0607 95.7769 73.714C94.9276 73.35 94.1909 72.8647 93.5669 72.258C92.9429 71.6513 92.4489 70.932 92.0849 70.1C91.7382 69.2507 91.5649 68.3407 91.5649 67.37C91.5649 66.4167 91.7382 65.524 92.0849 64.692C92.4316 63.86 92.8996 63.1407 93.4889 62.534C94.0782 61.9273 94.7802 61.4507 95.5949 61.104C96.4096 60.74 97.2762 60.558 98.1949 60.558C99.0962 60.558 99.9369 60.74 100.717 61.104C101.514 61.4507 102.19 61.936 102.745 62.56C103.317 63.1667 103.768 63.8947 104.097 64.744C104.426 65.5933 104.591 66.5033 104.591 67.474V68.228H94.1389C94.3122 69.32 94.8149 70.23 95.6469 70.958C96.4789 71.6687 97.4669 72.024 98.6109 72.024C99.2522 72.024 99.8676 71.92 100.457 71.712C101.046 71.504 101.549 71.218 101.965 70.854L103.629 72.492ZM98.1429 62.742C97.1549 62.742 96.2882 63.0713 95.5429 63.73C94.8149 64.3887 94.3556 65.238 94.1649 66.278H102.017C101.826 65.2727 101.367 64.432 100.639 63.756C99.9282 63.08 99.0962 62.742 98.1429 62.742ZM107.067 74V60.766H109.667V62.014C110.153 61.5287 110.707 61.156 111.331 60.896C111.955 60.636 112.64 60.506 113.385 60.506C114.269 60.506 115.067 60.7053 115.777 61.104C116.488 61.4853 117.051 62.0227 117.467 62.716C118.005 61.988 118.646 61.442 119.391 61.078C120.154 60.6967 121.003 60.506 121.939 60.506C123.395 60.506 124.583 60.9913 125.501 61.962C126.437 62.9153 126.905 64.1547 126.905 65.68V74H124.305V66.122C124.305 65.082 124.028 64.2673 123.473 63.678C122.936 63.0713 122.199 62.768 121.263 62.768C120.622 62.768 120.041 62.9153 119.521 63.21C119.001 63.5047 118.551 63.9467 118.169 64.536C118.204 64.7093 118.23 64.9 118.247 65.108C118.265 65.2987 118.273 65.4893 118.273 65.68V74H115.699V66.122C115.699 65.082 115.422 64.2673 114.867 63.678C114.33 63.0713 113.593 62.768 112.657 62.768C112.033 62.768 111.47 62.9067 110.967 63.184C110.465 63.444 110.031 63.8427 109.667 64.38V74H107.067ZM131.193 58.634C130.76 58.634 130.387 58.478 130.075 58.166C129.763 57.8367 129.607 57.4553 129.607 57.022C129.607 56.5887 129.763 56.216 130.075 55.904C130.387 55.5747 130.76 55.41 131.193 55.41C131.627 55.41 131.999 55.5747 132.311 55.904C132.641 56.216 132.805 56.5887 132.805 57.022C132.805 57.4553 132.641 57.8367 132.311 58.166C131.999 58.478 131.627 58.634 131.193 58.634ZM132.493 60.766V74H129.893V60.766H132.493ZM147.021 72.492C146.259 73.0813 145.461 73.5233 144.629 73.818C143.797 74.0953 142.887 74.234 141.899 74.234C140.929 74.234 140.019 74.0607 139.169 73.714C138.32 73.35 137.583 72.8647 136.959 72.258C136.335 71.6513 135.841 70.932 135.477 70.1C135.131 69.2507 134.957 68.3407 134.957 67.37C134.957 66.4167 135.131 65.524 135.477 64.692C135.824 63.86 136.292 63.1407 136.881 62.534C137.471 61.9273 138.173 61.4507 138.987 61.104C139.802 60.74 140.669 60.558 141.587 60.558C142.489 60.558 143.329 60.74 144.109 61.104C144.907 61.4507 145.583 61.936 146.137 62.56C146.709 63.1667 147.16 63.8947 147.489 64.744C147.819 65.5933 147.983 66.5033 147.983 67.474V68.228H137.531C137.705 69.32 138.207 70.23 139.039 70.958C139.871 71.6687 140.859 72.024 142.003 72.024C142.645 72.024 143.26 71.92 143.849 71.712C144.439 71.504 144.941 71.218 145.357 70.854L147.021 72.492ZM141.535 62.742C140.547 62.742 139.681 63.0713 138.935 63.73C138.207 64.3887 137.748 65.238 137.557 66.278H145.409C145.219 65.2727 144.759 64.432 144.031 63.756C143.321 63.08 142.489 62.742 141.535 62.742ZM150.46 74V60.766H153.06V62.456C153.458 61.8147 153.97 61.3293 154.594 61C155.218 60.6533 155.92 60.48 156.7 60.48C156.977 60.48 157.22 60.4973 157.428 60.532C157.636 60.5667 157.835 60.6187 158.026 60.688V63.028C157.783 62.9413 157.532 62.872 157.272 62.82C157.012 62.768 156.752 62.742 156.492 62.742C155.729 62.742 155.044 62.95 154.438 63.366C153.848 63.7647 153.389 64.3627 153.06 65.16V74H150.46ZM170.762 72.492C169.999 73.0813 169.202 73.5233 168.37 73.818C167.538 74.0953 166.628 74.234 165.64 74.234C164.669 74.234 163.759 74.0607 162.91 73.714C162.06 73.35 161.324 72.8647 160.7 72.258C160.076 71.6513 159.582 70.932 159.218 70.1C158.871 69.2507 158.698 68.3407 158.698 67.37C158.698 66.4167 158.871 65.524 159.218 64.692C159.564 63.86 160.032 63.1407 160.622 62.534C161.211 61.9273 161.913 61.4507 162.728 61.104C163.542 60.74 164.409 60.558 165.328 60.558C166.229 60.558 167.07 60.74 167.85 61.104C168.647 61.4507 169.323 61.936 169.878 62.56C170.45 63.1667 170.9 63.8947 171.23 64.744C171.559 65.5933 171.724 66.5033 171.724 67.474V68.228H161.272C161.445 69.32 161.948 70.23 162.78 70.958C163.612 71.6687 164.6 72.024 165.744 72.024C166.385 72.024 167 71.92 167.59 71.712C168.179 71.504 168.682 71.218 169.098 70.854L170.762 72.492ZM165.276 62.742C164.288 62.742 163.421 63.0713 162.676 63.73C161.948 64.3887 161.488 65.238 161.298 66.278H169.15C168.959 65.2727 168.5 64.432 167.772 63.756C167.061 63.08 166.229 62.742 165.276 62.742ZM174.46 68.8L174.122 55.15H176.8L176.488 68.8H174.46ZM175.474 74.208C175.023 74.208 174.633 74.0433 174.304 73.714C173.975 73.3847 173.81 72.9947 173.81 72.544C173.81 72.0933 173.975 71.712 174.304 71.4C174.633 71.0707 175.023 70.906 175.474 70.906C175.925 70.906 176.306 71.0707 176.618 71.4C176.947 71.712 177.112 72.0933 177.112 72.544C177.112 72.9947 176.947 73.3847 176.618 73.714C176.306 74.0433 175.925 74.208 175.474 74.208ZM185.661 74L187.221 68.566H184.491V66.642H187.767L188.755 63.158H185.791V61.234H189.301L190.861 55.8H193.227L191.667 61.234H196.321L197.881 55.8H200.221L198.661 61.234H201.417V63.158H198.115L197.127 66.642H200.117V68.566H196.581L195.021 74H192.681L194.241 68.566H189.587L188.027 74H185.661ZM190.133 66.642H194.787L195.775 63.158H191.121L190.133 66.642ZM202.637 60.766H205.705V58.764C205.705 57.3947 206.087 56.346 206.849 55.618C207.629 54.8727 208.747 54.5 210.203 54.5C210.55 54.5 210.879 54.526 211.191 54.578C211.503 54.6127 211.798 54.6647 212.075 54.734V56.996C211.763 56.9093 211.486 56.8487 211.243 56.814C211.001 56.7793 210.732 56.762 210.437 56.762C209.727 56.762 209.189 56.9353 208.825 57.282C208.479 57.6113 208.305 58.1227 208.305 58.816V60.766H212.075V62.95H208.305V74H205.705V62.95H202.637V60.766ZM214.063 74V60.766H216.663V62.456C217.062 61.8147 217.573 61.3293 218.197 61C218.821 60.6533 219.523 60.48 220.303 60.48C220.581 60.48 220.823 60.4973 221.031 60.532C221.239 60.5667 221.439 60.6187 221.629 60.688V63.028C221.387 62.9413 221.135 62.872 220.875 62.82C220.615 62.768 220.355 62.742 220.095 62.742C219.333 62.742 218.648 62.95 218.041 63.366C217.452 63.7647 216.993 64.3627 216.663 65.16V74H214.063ZM225.012 58.634C224.578 58.634 224.206 58.478 223.894 58.166C223.582 57.8367 223.426 57.4553 223.426 57.022C223.426 56.5887 223.582 56.216 223.894 55.904C224.206 55.5747 224.578 55.41 225.012 55.41C225.445 55.41 225.818 55.5747 226.13 55.904C226.459 56.216 226.624 56.5887 226.624 57.022C226.624 57.4553 226.459 57.8367 226.13 58.166C225.818 58.478 225.445 58.634 225.012 58.634ZM226.312 60.766V74H223.712V60.766H226.312ZM239.514 74V72.752C238.959 73.22 238.335 73.584 237.642 73.844C236.949 74.0867 236.221 74.208 235.458 74.208C234.522 74.208 233.647 74.0347 232.832 73.688C232.017 73.324 231.307 72.8387 230.7 72.232C230.111 71.6253 229.643 70.906 229.296 70.074C228.949 69.2247 228.776 68.3233 228.776 67.37C228.776 66.4167 228.949 65.524 229.296 64.692C229.643 63.86 230.111 63.1407 230.7 62.534C231.307 61.9273 232.026 61.4507 232.858 61.104C233.69 60.74 234.574 60.558 235.51 60.558C236.238 60.558 236.94 60.6707 237.616 60.896C238.292 61.1213 238.916 61.442 239.488 61.858V55.8L242.088 55.228V74H239.514ZM231.324 67.344C231.324 68.644 231.757 69.736 232.624 70.62C233.491 71.504 234.557 71.946 235.822 71.946C236.567 71.946 237.252 71.8073 237.876 71.53C238.517 71.2527 239.055 70.8627 239.488 70.36V64.354C239.055 63.8687 238.517 63.4873 237.876 63.21C237.235 62.9327 236.55 62.794 235.822 62.794C234.557 62.794 233.491 63.2273 232.624 64.094C231.757 64.9607 231.324 66.044 231.324 67.344ZM249.353 74.234C247.914 74.234 246.744 73.8613 245.843 73.116C244.941 72.3707 244.491 71.4 244.491 70.204C244.491 68.956 244.967 67.9767 245.921 67.266C246.874 66.538 248.183 66.174 249.847 66.174C250.488 66.174 251.112 66.2433 251.719 66.382C252.325 66.5033 252.906 66.6767 253.461 66.902V65.498C253.461 64.562 253.183 63.86 252.629 63.392C252.074 62.924 251.277 62.69 250.237 62.69C249.63 62.69 248.997 62.7853 248.339 62.976C247.68 63.1493 246.943 63.4267 246.129 63.808L245.167 61.858C246.155 61.39 247.091 61.052 247.975 60.844C248.859 60.6187 249.734 60.506 250.601 60.506C252.317 60.506 253.643 60.922 254.579 61.754C255.532 62.5687 256.009 63.73 256.009 65.238V74H253.461V72.856C252.871 73.324 252.239 73.6707 251.563 73.896C250.887 74.1213 250.15 74.234 249.353 74.234ZM246.987 70.152C246.987 70.7933 247.255 71.3133 247.793 71.712C248.347 72.1107 249.067 72.31 249.951 72.31C250.644 72.31 251.285 72.206 251.875 71.998C252.464 71.79 252.993 71.478 253.461 71.062V68.774C252.958 68.4967 252.429 68.2973 251.875 68.176C251.32 68.0373 250.713 67.968 250.055 67.968C249.119 67.968 248.373 68.1673 247.819 68.566C247.264 68.9647 246.987 69.4933 246.987 70.152ZM262.053 75.248L262.573 74.052L257.295 60.766H260.155L264.029 70.88L268.293 60.766H271.101L264.705 75.586C264.098 76.99 263.405 77.9953 262.625 78.602C261.845 79.226 260.848 79.538 259.635 79.538C259.357 79.538 259.097 79.5207 258.855 79.486C258.629 79.4687 258.43 79.434 258.257 79.382V77.094C258.43 77.1287 258.603 77.1547 258.777 77.172C258.967 77.1893 259.184 77.198 259.427 77.198C260.016 77.198 260.527 77.0333 260.961 76.704C261.411 76.392 261.775 75.9067 262.053 75.248Z" fill="black"/>
<rect width="471" height="96" rx="10" fill="black" fill-opacity="0.5"/>
<g filter="url(#filter2_d)">
<rect x="1104" width="471" height="96" rx="10" fill="white"/>
</g>
<path d="M1122 40.8019L1126.22 20.9906L1130.92 20L1128.31 32.2264L1135.11 25.8302H1140.57L1132.19 33.3585L1137.83 40.8019H1132.42L1127.86 34.3774L1126.5 40.8019H1122Z" fill="black"/>
<path d="M1156 32.5943C1156 33.7642 1155.77 34.8585 1155.32 35.8774C1154.89 36.8962 1154.29 37.783 1153.54 38.5377C1152.8 39.2925 1151.91 39.8962 1150.88 40.3491C1149.86 40.783 1148.77 41 1147.62 41C1146.77 41 1145.98 40.8679 1145.24 40.6038C1144.52 40.3396 1143.87 39.9623 1143.29 39.4717L1143.01 40.8019H1138.56L1142.78 20.9906L1147.48 20L1146.12 26.4245C1146.61 26.1792 1147.12 25.9906 1147.65 25.8585C1148.2 25.7075 1148.75 25.6321 1149.32 25.6321C1150.26 25.6321 1151.14 25.8113 1151.95 26.1698C1152.76 26.5283 1153.46 27.0189 1154.05 27.6415C1154.65 28.2642 1155.12 29 1155.46 29.8491C1155.82 30.6981 1156 31.6132 1156 32.5943ZM1148.07 29.5094C1147.54 29.5094 1147.04 29.5943 1146.57 29.7642C1146.1 29.9151 1145.66 30.1604 1145.24 30.5L1144.14 35.6509C1144.5 36.1038 1144.97 36.4623 1145.55 36.7264C1146.14 36.9717 1146.77 37.0943 1147.45 37.0943C1148.62 37.0943 1149.6 36.6981 1150.39 35.9057C1151.21 35.0943 1151.61 34.1226 1151.61 32.9906C1151.61 32.0094 1151.27 31.1887 1150.59 30.5283C1149.93 29.8491 1149.09 29.5094 1148.07 29.5094Z" fill="#297FFF"/>
<path d="M1171.95 40L1173.51 34.566H1170.78V32.642H1174.06L1175.04 29.158H1172.08V27.234H1175.59L1177.15 21.8H1179.52L1177.96 27.234H1182.61L1184.17 21.8H1186.51L1184.95 27.234H1187.71V29.158H1184.4L1183.42 32.642H1186.41V34.566H1182.87L1181.31 40H1178.97L1180.53 34.566H1175.88L1174.32 40H1171.95ZM1176.42 32.642H1181.08L1182.06 29.158H1177.41L1176.42 32.642ZM1191.73 36.724V28.95H1188.93V26.766H1191.73V23.386L1194.31 22.762V26.766H1198.21V28.95H1194.31V36.126C1194.31 36.802 1194.46 37.2787 1194.75 37.556C1195.06 37.8333 1195.57 37.972 1196.26 37.972C1196.62 37.972 1196.94 37.9547 1197.22 37.92C1197.52 37.868 1197.83 37.7813 1198.16 37.66V39.844C1197.81 39.9653 1197.4 40.0607 1196.93 40.13C1196.48 40.1993 1196.07 40.234 1195.69 40.234C1194.4 40.234 1193.42 39.9393 1192.75 39.35C1192.07 38.7433 1191.73 37.868 1191.73 36.724ZM1200.12 40V21.8L1202.72 21.228V28.092C1203.24 27.572 1203.83 27.182 1204.49 26.922C1205.17 26.6447 1205.9 26.506 1206.7 26.506C1208.21 26.506 1209.45 26.9913 1210.42 27.962C1211.39 28.9153 1211.88 30.1547 1211.88 31.68V40H1209.28V32.122C1209.28 31.082 1208.97 30.2673 1208.37 29.678C1207.78 29.0713 1206.99 28.768 1206 28.768C1205.31 28.768 1204.67 28.9153 1204.1 29.21C1203.55 29.5047 1203.09 29.9293 1202.72 30.484V40H1200.12ZM1214.88 40V26.766H1217.48V28.456C1217.87 27.8147 1218.39 27.3293 1219.01 27C1219.63 26.6533 1220.34 26.48 1221.12 26.48C1221.39 26.48 1221.64 26.4973 1221.84 26.532C1222.05 26.5667 1222.25 26.6187 1222.44 26.688V29.028C1222.2 28.9413 1221.95 28.872 1221.69 28.82C1221.43 28.768 1221.17 28.742 1220.91 28.742C1220.15 28.742 1219.46 28.95 1218.85 29.366C1218.26 29.7647 1217.81 30.3627 1217.48 31.16V40H1214.88ZM1223.11 33.37C1223.11 32.4167 1223.29 31.524 1223.63 30.692C1224 29.8427 1224.49 29.1147 1225.12 28.508C1225.74 27.884 1226.47 27.3987 1227.3 27.052C1228.15 26.688 1229.05 26.506 1230 26.506C1230.96 26.506 1231.85 26.688 1232.68 27.052C1233.53 27.3987 1234.26 27.884 1234.87 28.508C1235.49 29.1147 1235.98 29.8427 1236.32 30.692C1236.69 31.524 1236.87 32.4167 1236.87 33.37C1236.87 34.3407 1236.69 35.2507 1236.32 36.1C1235.98 36.932 1235.49 37.66 1234.87 38.284C1234.26 38.8907 1233.53 39.376 1232.68 39.74C1231.85 40.0867 1230.96 40.26 1230 40.26C1229.05 40.26 1228.15 40.0867 1227.3 39.74C1226.47 39.376 1225.74 38.8907 1225.12 38.284C1224.49 37.66 1224 36.932 1223.63 36.1C1223.29 35.2507 1223.11 34.3407 1223.11 33.37ZM1230 37.972C1231.2 37.972 1232.21 37.53 1233.05 36.646C1233.9 35.7447 1234.32 34.6527 1234.32 33.37C1234.32 32.0873 1233.9 31.004 1233.05 30.12C1232.21 29.236 1231.2 28.794 1230 28.794C1228.81 28.794 1227.79 29.236 1226.94 30.12C1226.09 31.004 1225.66 32.0873 1225.66 33.37C1225.66 34.6527 1226.08 35.7447 1226.91 36.646C1227.76 37.53 1228.79 37.972 1230 37.972ZM1244.07 40H1241.54L1237.85 26.766H1240.37L1242.92 36.49L1245.96 26.766H1248.2L1251.22 36.49L1253.79 26.766H1256.23L1252.52 40H1250.02L1247.06 30.302L1244.07 40ZM1271.4 33.37C1271.4 34.3233 1271.23 35.2247 1270.88 36.074C1270.54 36.906 1270.06 37.6253 1269.45 38.232C1268.86 38.8387 1268.15 39.324 1267.32 39.688C1266.49 40.0347 1265.6 40.208 1264.67 40.208C1263.92 40.208 1263.21 40.0953 1262.54 39.87C1261.86 39.6447 1261.24 39.3153 1260.66 38.882V40H1258.09V21.8L1260.69 21.228V28.014C1261.23 27.546 1261.84 27.1907 1262.54 26.948C1263.23 26.688 1263.96 26.558 1264.72 26.558C1265.66 26.558 1266.53 26.74 1267.35 27.104C1268.16 27.4507 1268.86 27.9273 1269.45 28.534C1270.06 29.1407 1270.54 29.86 1270.88 30.692C1271.23 31.524 1271.4 32.4167 1271.4 33.37ZM1264.38 28.82C1263.64 28.82 1262.94 28.9587 1262.3 29.236C1261.66 29.5133 1261.12 29.9033 1260.69 30.406V36.386C1261.11 36.8713 1261.64 37.2527 1262.28 37.53C1262.94 37.8073 1263.64 37.946 1264.38 37.946C1265.65 37.946 1266.71 37.5127 1267.55 36.646C1268.42 35.7793 1268.85 34.696 1268.85 33.396C1268.85 32.096 1268.42 31.0127 1267.55 30.146C1266.69 29.262 1265.63 28.82 1264.38 28.82ZM1278.2 40.234C1276.76 40.234 1275.59 39.8613 1274.69 39.116C1273.79 38.3707 1273.33 37.4 1273.33 36.204C1273.33 34.956 1273.81 33.9767 1274.76 33.266C1275.72 32.538 1277.03 32.174 1278.69 32.174C1279.33 32.174 1279.96 32.2433 1280.56 32.382C1281.17 32.5033 1281.75 32.6767 1282.3 32.902V31.498C1282.3 30.562 1282.03 29.86 1281.47 29.392C1280.92 28.924 1280.12 28.69 1279.08 28.69C1278.47 28.69 1277.84 28.7853 1277.18 28.976C1276.52 29.1493 1275.79 29.4267 1274.97 29.808L1274.01 27.858C1275 27.39 1275.93 27.052 1276.82 26.844C1277.7 26.6187 1278.58 26.506 1279.44 26.506C1281.16 26.506 1282.49 26.922 1283.42 27.754C1284.38 28.5687 1284.85 29.73 1284.85 31.238V40H1282.3V38.856C1281.72 39.324 1281.08 39.6707 1280.41 39.896C1279.73 40.1213 1278.99 40.234 1278.2 40.234ZM1275.83 36.152C1275.83 36.7933 1276.1 37.3133 1276.64 37.712C1277.19 38.1107 1277.91 38.31 1278.79 38.31C1279.49 38.31 1280.13 38.206 1280.72 37.998C1281.31 37.79 1281.84 37.478 1282.3 37.062V34.774C1281.8 34.4967 1281.27 34.2973 1280.72 34.176C1280.16 34.0373 1279.56 33.968 1278.9 33.968C1277.96 33.968 1277.22 34.1673 1276.66 34.566C1276.11 34.9647 1275.83 35.4933 1275.83 36.152ZM1294.17 37.946C1294.83 37.946 1295.45 37.816 1296.04 37.556C1296.63 37.2787 1297.19 36.8713 1297.73 36.334L1299.29 38.024C1298.6 38.7173 1297.8 39.2633 1296.9 39.662C1296 40.0433 1295.05 40.234 1294.06 40.234C1293.11 40.234 1292.22 40.0607 1291.38 39.714C1290.55 39.35 1289.83 38.8647 1289.23 38.258C1288.62 37.6513 1288.13 36.932 1287.77 36.1C1287.42 35.2507 1287.25 34.3407 1287.25 33.37C1287.25 32.4167 1287.42 31.524 1287.77 30.692C1288.13 29.8427 1288.62 29.1147 1289.23 28.508C1289.83 27.884 1290.55 27.3987 1291.38 27.052C1292.22 26.688 1293.11 26.506 1294.06 26.506C1295.05 26.506 1296.01 26.7053 1296.95 27.104C1297.88 27.4853 1298.7 28.0227 1299.39 28.716L1297.75 30.484C1297.25 29.9467 1296.69 29.5393 1296.06 29.262C1295.44 28.9673 1294.79 28.82 1294.11 28.82C1292.92 28.82 1291.9 29.262 1291.07 30.146C1290.24 31.03 1289.82 32.1047 1289.82 33.37C1289.82 34.67 1290.24 35.762 1291.07 36.646C1291.92 37.5127 1292.95 37.946 1294.17 37.946ZM1301.41 40V21.8L1304.01 21.228V32.59L1310.43 26.766H1313.47L1306.66 32.98L1313.84 40H1310.4L1304.01 33.76V40H1301.41ZM1322.19 36.724V28.95H1319.38V26.766H1322.19V23.386L1324.77 22.762V26.766H1328.67V28.95H1324.77V36.126C1324.77 36.802 1324.91 37.2787 1325.21 37.556C1325.52 37.8333 1326.02 37.972 1326.72 37.972C1327.08 37.972 1327.4 37.9547 1327.68 37.92C1327.97 37.868 1328.28 37.7813 1328.61 37.66V39.844C1328.27 39.9653 1327.86 40.0607 1327.39 40.13C1326.94 40.1993 1326.52 40.234 1326.14 40.234C1324.86 40.234 1323.88 39.9393 1323.21 39.35C1322.53 38.7433 1322.19 37.868 1322.19 36.724ZM1329.7 33.37C1329.7 32.4167 1329.88 31.524 1330.22 30.692C1330.59 29.8427 1331.08 29.1147 1331.71 28.508C1332.33 27.884 1333.06 27.3987 1333.89 27.052C1334.74 26.688 1335.64 26.506 1336.59 26.506C1337.55 26.506 1338.44 26.688 1339.27 27.052C1340.12 27.3987 1340.85 27.884 1341.46 28.508C1342.08 29.1147 1342.56 29.8427 1342.91 30.692C1343.28 31.524 1343.46 32.4167 1343.46 33.37C1343.46 34.3407 1343.28 35.2507 1342.91 36.1C1342.56 36.932 1342.08 37.66 1341.46 38.284C1340.85 38.8907 1340.12 39.376 1339.27 39.74C1338.44 40.0867 1337.55 40.26 1336.59 40.26C1335.64 40.26 1334.74 40.0867 1333.89 39.74C1333.06 39.376 1332.33 38.8907 1331.71 38.284C1331.08 37.66 1330.59 36.932 1330.22 36.1C1329.88 35.2507 1329.7 34.3407 1329.7 33.37ZM1336.59 37.972C1337.79 37.972 1338.8 37.53 1339.64 36.646C1340.48 35.7447 1340.91 34.6527 1340.91 33.37C1340.91 32.0873 1340.48 31.004 1339.64 30.12C1338.8 29.236 1337.79 28.794 1336.59 28.794C1335.4 28.794 1334.37 29.236 1333.53 30.12C1332.68 31.004 1332.25 32.0873 1332.25 33.37C1332.25 34.6527 1332.67 35.7447 1333.5 36.646C1334.35 37.53 1335.38 37.972 1336.59 37.972ZM1353.07 36.724V28.95H1350.26V26.766H1353.07V23.386L1355.64 22.762V26.766H1359.54V28.95H1355.64V36.126C1355.64 36.802 1355.79 37.2787 1356.08 37.556C1356.39 37.8333 1356.9 37.972 1357.59 37.972C1357.95 37.972 1358.28 37.9547 1358.55 37.92C1358.85 37.868 1359.16 37.7813 1359.49 37.66V39.844C1359.14 39.9653 1358.73 40.0607 1358.27 40.13C1357.82 40.1993 1357.4 40.234 1357.02 40.234C1355.74 40.234 1354.76 39.9393 1354.08 39.35C1353.4 38.7433 1353.07 37.868 1353.07 36.724ZM1361.46 40V21.8L1364.06 21.228V28.092C1364.58 27.572 1365.17 27.182 1365.82 26.922C1366.5 26.6447 1367.24 26.506 1368.03 26.506C1369.54 26.506 1370.78 26.9913 1371.75 27.962C1372.72 28.9153 1373.21 30.1547 1373.21 31.68V40H1370.61V32.122C1370.61 31.082 1370.3 30.2673 1369.7 29.678C1369.11 29.0713 1368.32 28.768 1367.33 28.768C1366.64 28.768 1366.01 28.9153 1365.43 29.21C1364.88 29.5047 1364.42 29.9293 1364.06 30.484V40H1361.46ZM1387.67 38.492C1386.91 39.0813 1386.11 39.5233 1385.28 39.818C1384.45 40.0953 1383.54 40.234 1382.55 40.234C1381.58 40.234 1380.67 40.0607 1379.82 39.714C1378.97 39.35 1378.24 38.8647 1377.61 38.258C1376.99 37.6513 1376.49 36.932 1376.13 36.1C1375.78 35.2507 1375.61 34.3407 1375.61 33.37C1375.61 32.4167 1375.78 31.524 1376.13 30.692C1376.48 29.86 1376.94 29.1407 1377.53 28.534C1378.12 27.9273 1378.83 27.4507 1379.64 27.104C1380.45 26.74 1381.32 26.558 1382.24 26.558C1383.14 26.558 1383.98 26.74 1384.76 27.104C1385.56 27.4507 1386.24 27.936 1386.79 28.56C1387.36 29.1667 1387.81 29.8947 1388.14 30.744C1388.47 31.5933 1388.64 32.5033 1388.64 33.474V34.228H1378.18C1378.36 35.32 1378.86 36.23 1379.69 36.958C1380.52 37.6687 1381.51 38.024 1382.66 38.024C1383.3 38.024 1383.91 37.92 1384.5 37.712C1385.09 37.504 1385.59 37.218 1386.01 36.854L1387.67 38.492ZM1382.19 28.742C1381.2 28.742 1380.33 29.0713 1379.59 29.73C1378.86 30.3887 1378.4 31.238 1378.21 32.278H1386.06C1385.87 31.2727 1385.41 30.432 1384.68 29.756C1383.97 29.08 1383.14 28.742 1382.19 28.742ZM1398.26 36.724V28.95H1395.45V26.766H1398.26V23.386L1400.84 22.762V26.766H1404.74V28.95H1400.84V36.126C1400.84 36.802 1400.98 37.2787 1401.28 37.556C1401.59 37.8333 1402.09 37.972 1402.79 37.972C1403.15 37.972 1403.47 37.9547 1403.75 37.92C1404.04 37.868 1404.35 37.7813 1404.68 37.66V39.844C1404.34 39.9653 1403.93 40.0607 1403.46 40.13C1403.01 40.1993 1402.6 40.234 1402.21 40.234C1400.93 40.234 1399.95 39.9393 1399.28 39.35C1398.6 38.7433 1398.26 37.868 1398.26 36.724ZM1407.95 24.634C1407.52 24.634 1407.15 24.478 1406.83 24.166C1406.52 23.8367 1406.37 23.4553 1406.37 23.022C1406.37 22.5887 1406.52 22.216 1406.83 21.904C1407.15 21.5747 1407.52 21.41 1407.95 21.41C1408.38 21.41 1408.76 21.5747 1409.07 21.904C1409.4 22.216 1409.56 22.5887 1409.56 23.022C1409.56 23.4553 1409.4 23.8367 1409.07 24.166C1408.76 24.478 1408.38 24.634 1407.95 24.634ZM1409.25 26.766V40H1406.65V26.766H1409.25ZM1412.31 40V26.766H1414.91V28.014C1415.4 27.5287 1415.95 27.156 1416.58 26.896C1417.2 26.636 1417.89 26.506 1418.63 26.506C1419.52 26.506 1420.31 26.7053 1421.02 27.104C1421.73 27.4853 1422.3 28.0227 1422.71 28.716C1423.25 27.988 1423.89 27.442 1424.64 27.078C1425.4 26.6967 1426.25 26.506 1427.19 26.506C1428.64 26.506 1429.83 26.9913 1430.75 27.962C1431.68 28.9153 1432.15 30.1547 1432.15 31.68V40H1429.55V32.122C1429.55 31.082 1429.27 30.2673 1428.72 29.678C1428.18 29.0713 1427.45 28.768 1426.51 28.768C1425.87 28.768 1425.29 28.9153 1424.77 29.21C1424.25 29.5047 1423.8 29.9467 1423.42 30.536C1423.45 30.7093 1423.48 30.9 1423.49 31.108C1423.51 31.2987 1423.52 31.4893 1423.52 31.68V40H1420.95V32.122C1420.95 31.082 1420.67 30.2673 1420.11 29.678C1419.58 29.0713 1418.84 28.768 1417.9 28.768C1417.28 28.768 1416.72 28.9067 1416.21 29.184C1415.71 29.444 1415.28 29.8427 1414.91 30.38V40H1412.31ZM1446.61 38.492C1445.84 39.0813 1445.05 39.5233 1444.21 39.818C1443.38 40.0953 1442.47 40.234 1441.48 40.234C1440.51 40.234 1439.6 40.0607 1438.75 39.714C1437.9 39.35 1437.17 38.8647 1436.54 38.258C1435.92 37.6513 1435.43 36.932 1435.06 36.1C1434.71 35.2507 1434.54 34.3407 1434.54 33.37C1434.54 32.4167 1434.71 31.524 1435.06 30.692C1435.41 29.86 1435.88 29.1407 1436.47 28.534C1437.05 27.9273 1437.76 27.4507 1438.57 27.104C1439.39 26.74 1440.25 26.558 1441.17 26.558C1442.07 26.558 1442.91 26.74 1443.69 27.104C1444.49 27.4507 1445.17 27.936 1445.72 28.56C1446.29 29.1667 1446.74 29.8947 1447.07 30.744C1447.4 31.5933 1447.57 32.5033 1447.57 33.474V34.228H1437.12C1437.29 35.32 1437.79 36.23 1438.62 36.958C1439.46 37.6687 1440.44 38.024 1441.59 38.024C1442.23 38.024 1442.84 37.92 1443.43 37.712C1444.02 37.504 1444.53 37.218 1444.94 36.854L1446.61 38.492ZM1441.12 28.742C1440.13 28.742 1439.26 29.0713 1438.52 29.73C1437.79 30.3887 1437.33 31.238 1437.14 32.278H1444.99C1444.8 31.2727 1444.34 30.432 1443.62 29.756C1442.9 29.08 1442.07 28.742 1441.12 28.742ZM1455.79 40V21.8H1458.52V40H1455.79ZM1467.36 40V26.766H1469.96V28.014C1470.45 27.5287 1471 27.156 1471.62 26.896C1472.25 26.636 1472.93 26.506 1473.68 26.506C1474.56 26.506 1475.36 26.7053 1476.07 27.104C1476.78 27.4853 1477.34 28.0227 1477.76 28.716C1478.3 27.988 1478.94 27.442 1479.68 27.078C1480.45 26.6967 1481.3 26.506 1482.23 26.506C1483.69 26.506 1484.88 26.9913 1485.79 27.962C1486.73 28.9153 1487.2 30.1547 1487.2 31.68V40H1484.6V32.122C1484.6 31.082 1484.32 30.2673 1483.77 29.678C1483.23 29.0713 1482.49 28.768 1481.56 28.768C1480.91 28.768 1480.33 28.9153 1479.81 29.21C1479.29 29.5047 1478.84 29.9467 1478.46 30.536C1478.5 30.7093 1478.52 30.9 1478.54 31.108C1478.56 31.2987 1478.57 31.4893 1478.57 31.68V40H1475.99V32.122C1475.99 31.082 1475.71 30.2673 1475.16 29.678C1474.62 29.0713 1473.89 28.768 1472.95 28.768C1472.33 28.768 1471.76 28.9067 1471.26 29.184C1470.76 29.444 1470.32 29.8427 1469.96 30.38V40H1467.36ZM1501.65 38.492C1500.89 39.0813 1500.09 39.5233 1499.26 39.818C1498.43 40.0953 1497.52 40.234 1496.53 40.234C1495.56 40.234 1494.65 40.0607 1493.8 39.714C1492.95 39.35 1492.21 38.8647 1491.59 38.258C1490.97 37.6513 1490.47 36.932 1490.11 36.1C1489.76 35.2507 1489.59 34.3407 1489.59 33.37C1489.59 32.4167 1489.76 31.524 1490.11 30.692C1490.46 29.86 1490.92 29.1407 1491.51 28.534C1492.1 27.9273 1492.8 27.4507 1493.62 27.104C1494.43 26.74 1495.3 26.558 1496.22 26.558C1497.12 26.558 1497.96 26.74 1498.74 27.104C1499.54 27.4507 1500.21 27.936 1500.77 28.56C1501.34 29.1667 1501.79 29.8947 1502.12 30.744C1502.45 31.5933 1502.61 32.5033 1502.61 33.474V34.228H1492.16C1492.34 35.32 1492.84 36.23 1493.67 36.958C1494.5 37.6687 1495.49 38.024 1496.63 38.024C1497.28 38.024 1497.89 37.92 1498.48 37.712C1499.07 37.504 1499.57 37.218 1499.99 36.854L1501.65 38.492ZM1496.17 28.742C1495.18 28.742 1494.31 29.0713 1493.57 29.73C1492.84 30.3887 1492.38 31.238 1492.19 32.278H1500.04C1499.85 31.2727 1499.39 30.432 1498.66 29.756C1497.95 29.08 1497.12 28.742 1496.17 28.742ZM1506.3 36.724V28.95H1503.49V26.766H1506.3V23.386L1508.87 22.762V26.766H1512.77V28.95H1508.87V36.126C1508.87 36.802 1509.02 37.2787 1509.31 37.556C1509.63 37.8333 1510.13 37.972 1510.82 37.972C1511.19 37.972 1511.51 37.9547 1511.78 37.92C1512.08 37.868 1512.39 37.7813 1512.72 37.66V39.844C1512.37 39.9653 1511.97 40.0607 1511.5 40.13C1511.05 40.1993 1510.63 40.234 1510.25 40.234C1508.97 40.234 1507.99 39.9393 1507.31 39.35C1506.64 38.7433 1506.3 37.868 1506.3 36.724ZM1171.85 74V55.8H1174.58V64.276L1183.39 55.8H1186.82L1177.44 64.588L1187.13 74H1183.39L1174.58 65.342V74H1171.85ZM1198.79 72.492C1198.03 73.0813 1197.23 73.5233 1196.4 73.818C1195.57 74.0953 1194.66 74.234 1193.67 74.234C1192.7 74.234 1191.79 74.0607 1190.94 73.714C1190.09 73.35 1189.35 72.8647 1188.73 72.258C1188.11 71.6513 1187.61 70.932 1187.25 70.1C1186.9 69.2507 1186.73 68.3407 1186.73 67.37C1186.73 66.4167 1186.9 65.524 1187.25 64.692C1187.6 63.86 1188.06 63.1407 1188.65 62.534C1189.24 61.9273 1189.94 61.4507 1190.76 61.104C1191.57 60.74 1192.44 60.558 1193.36 60.558C1194.26 60.558 1195.1 60.74 1195.88 61.104C1196.68 61.4507 1197.35 61.936 1197.91 62.56C1198.48 63.1667 1198.93 63.8947 1199.26 64.744C1199.59 65.5933 1199.75 66.5033 1199.75 67.474V68.228H1189.3C1189.48 69.32 1189.98 70.23 1190.81 70.958C1191.64 71.6687 1192.63 72.024 1193.77 72.024C1194.42 72.024 1195.03 71.92 1195.62 71.712C1196.21 71.504 1196.71 71.218 1197.13 70.854L1198.79 72.492ZM1193.31 62.742C1192.32 62.742 1191.45 63.0713 1190.71 63.73C1189.98 64.3887 1189.52 65.238 1189.33 66.278H1197.18C1196.99 65.2727 1196.53 64.432 1195.8 63.756C1195.09 63.08 1194.26 62.742 1193.31 62.742ZM1206.26 74.234C1204.83 74.234 1203.66 73.8613 1202.75 73.116C1201.85 72.3707 1201.4 71.4 1201.4 70.204C1201.4 68.956 1201.88 67.9767 1202.83 67.266C1203.79 66.538 1205.09 66.174 1206.76 66.174C1207.4 66.174 1208.02 66.2433 1208.63 66.382C1209.24 66.5033 1209.82 66.6767 1210.37 66.902V65.498C1210.37 64.562 1210.1 63.86 1209.54 63.392C1208.99 62.924 1208.19 62.69 1207.15 62.69C1206.54 62.69 1205.91 62.7853 1205.25 62.976C1204.59 63.1493 1203.86 63.4267 1203.04 63.808L1202.08 61.858C1203.07 61.39 1204 61.052 1204.89 60.844C1205.77 60.6187 1206.65 60.506 1207.51 60.506C1209.23 60.506 1210.55 60.922 1211.49 61.754C1212.44 62.5687 1212.92 63.73 1212.92 65.238V74H1210.37V72.856C1209.78 73.324 1209.15 73.6707 1208.47 73.896C1207.8 74.1213 1207.06 74.234 1206.26 74.234ZM1203.9 70.152C1203.9 70.7933 1204.17 71.3133 1204.7 71.712C1205.26 72.1107 1205.98 72.31 1206.86 72.31C1207.56 72.31 1208.2 72.206 1208.79 71.998C1209.38 71.79 1209.9 71.478 1210.37 71.062V68.774C1209.87 68.4967 1209.34 68.2973 1208.79 68.176C1208.23 68.0373 1207.63 67.968 1206.97 67.968C1206.03 67.968 1205.29 68.1673 1204.73 68.566C1204.18 68.9647 1203.9 69.4933 1203.9 70.152ZM1215.92 74V60.766H1218.52V62.092C1219.04 61.572 1219.63 61.182 1220.28 60.922C1220.96 60.6447 1221.7 60.506 1222.49 60.506C1224 60.506 1225.24 60.9913 1226.21 61.962C1227.18 62.9153 1227.67 64.1547 1227.67 65.68V74H1225.07V66.122C1225.07 65.082 1224.77 64.2673 1224.16 63.678C1223.57 63.0713 1222.78 62.768 1221.79 62.768C1221.1 62.768 1220.47 62.9153 1219.89 63.21C1219.34 63.5047 1218.88 63.9293 1218.52 64.484V74H1215.92ZM1233.09 60.766V68.618C1233.09 69.658 1233.38 70.4813 1233.97 71.088C1234.58 71.6947 1235.38 71.998 1236.37 71.998C1237.06 71.998 1237.68 71.8507 1238.24 71.556C1238.79 71.244 1239.25 70.8107 1239.62 70.256V60.766H1242.22V74H1239.62V72.674C1239.1 73.194 1238.5 73.5927 1237.82 73.87C1237.16 74.13 1236.44 74.26 1235.64 74.26C1234.13 74.26 1232.89 73.7747 1231.92 72.804C1230.97 71.8333 1230.49 70.5853 1230.49 69.06V60.766H1233.09ZM1251.04 74V55.8H1259.31C1261.11 55.8 1262.57 56.3027 1263.68 57.308C1264.8 58.296 1265.37 59.5873 1265.37 61.182C1265.37 62.378 1265.03 63.418 1264.35 64.302C1263.68 65.1687 1262.77 65.7927 1261.62 66.174L1265.68 74H1262.66L1258.89 66.538H1253.77V74H1251.04ZM1259.07 58.192H1253.77V64.276H1259.07C1260.13 64.276 1260.98 63.9987 1261.62 63.444C1262.28 62.872 1262.61 62.1353 1262.61 61.234C1262.61 60.3153 1262.28 59.5787 1261.62 59.024C1260.98 58.4693 1260.13 58.192 1259.07 58.192ZM1278.54 72.492C1277.78 73.0813 1276.98 73.5233 1276.15 73.818C1275.32 74.0953 1274.41 74.234 1273.42 74.234C1272.45 74.234 1271.54 74.0607 1270.69 73.714C1269.84 73.35 1269.11 72.8647 1268.48 72.258C1267.86 71.6513 1267.36 70.932 1267 70.1C1266.65 69.2507 1266.48 68.3407 1266.48 67.37C1266.48 66.4167 1266.65 65.524 1267 64.692C1267.35 63.86 1267.82 63.1407 1268.4 62.534C1268.99 61.9273 1269.7 61.4507 1270.51 61.104C1271.33 60.74 1272.19 60.558 1273.11 60.558C1274.01 60.558 1274.85 60.74 1275.63 61.104C1276.43 61.4507 1277.11 61.936 1277.66 62.56C1278.23 63.1667 1278.68 63.8947 1279.01 64.744C1279.34 65.5933 1279.51 66.5033 1279.51 67.474V68.228H1269.05C1269.23 69.32 1269.73 70.23 1270.56 70.958C1271.39 71.6687 1272.38 72.024 1273.53 72.024C1274.17 72.024 1274.78 71.92 1275.37 71.712C1275.96 71.504 1276.46 71.218 1276.88 70.854L1278.54 72.492ZM1273.06 62.742C1272.07 62.742 1271.2 63.0713 1270.46 63.73C1269.73 64.3887 1269.27 65.238 1269.08 66.278H1276.93C1276.74 65.2727 1276.28 64.432 1275.55 63.756C1274.84 63.08 1274.01 62.742 1273.06 62.742ZM1293.5 72.492C1292.74 73.0813 1291.94 73.5233 1291.11 73.818C1290.28 74.0953 1289.37 74.234 1288.38 74.234C1287.41 74.234 1286.5 74.0607 1285.65 73.714C1284.8 73.35 1284.06 72.8647 1283.44 72.258C1282.81 71.6513 1282.32 70.932 1281.96 70.1C1281.61 69.2507 1281.44 68.3407 1281.44 67.37C1281.44 66.4167 1281.61 65.524 1281.96 64.692C1282.3 63.86 1282.77 63.1407 1283.36 62.534C1283.95 61.9273 1284.65 61.4507 1285.47 61.104C1286.28 60.74 1287.15 60.558 1288.07 60.558C1288.97 60.558 1289.81 60.74 1290.59 61.104C1291.39 61.4507 1292.06 61.936 1292.62 62.56C1293.19 63.1667 1293.64 63.8947 1293.97 64.744C1294.3 65.5933 1294.46 66.5033 1294.46 67.474V68.228H1284.01C1284.18 69.32 1284.69 70.23 1285.52 70.958C1286.35 71.6687 1287.34 72.024 1288.48 72.024C1289.12 72.024 1289.74 71.92 1290.33 71.712C1290.92 71.504 1291.42 71.218 1291.84 70.854L1293.5 72.492ZM1288.01 62.742C1287.03 62.742 1286.16 63.0713 1285.41 63.73C1284.69 64.3887 1284.23 65.238 1284.04 66.278H1291.89C1291.7 65.2727 1291.24 64.432 1290.51 63.756C1289.8 63.08 1288.97 62.742 1288.01 62.742ZM1300.69 74L1294.97 60.766H1297.83L1301.97 70.672L1306.1 60.766H1308.88L1303.16 74H1300.69ZM1321.46 72.492C1320.69 73.0813 1319.9 73.5233 1319.06 73.818C1318.23 74.0953 1317.32 74.234 1316.33 74.234C1315.36 74.234 1314.45 74.0607 1313.6 73.714C1312.75 73.35 1312.02 72.8647 1311.39 72.258C1310.77 71.6513 1310.28 70.932 1309.91 70.1C1309.56 69.2507 1309.39 68.3407 1309.39 67.37C1309.39 66.4167 1309.56 65.524 1309.91 64.692C1310.26 63.86 1310.73 63.1407 1311.32 62.534C1311.9 61.9273 1312.61 61.4507 1313.42 61.104C1314.24 60.74 1315.1 60.558 1316.02 60.558C1316.92 60.558 1317.76 60.74 1318.54 61.104C1319.34 61.4507 1320.02 61.936 1320.57 62.56C1321.14 63.1667 1321.59 63.8947 1321.92 64.744C1322.25 65.5933 1322.42 66.5033 1322.42 67.474V68.228H1311.97C1312.14 69.32 1312.64 70.23 1313.47 70.958C1314.31 71.6687 1315.29 72.024 1316.44 72.024C1317.08 72.024 1317.69 71.92 1318.28 71.712C1318.87 71.504 1319.38 71.218 1319.79 70.854L1321.46 72.492ZM1315.97 62.742C1314.98 62.742 1314.11 63.0713 1313.37 63.73C1312.64 64.3887 1312.18 65.238 1311.99 66.278H1319.84C1319.65 65.2727 1319.19 64.432 1318.47 63.756C1317.75 63.08 1316.92 62.742 1315.97 62.742ZM1323.77 72.284L1325.18 70.568C1325.87 71.1053 1326.57 71.5213 1327.28 71.816C1328.01 72.0933 1328.75 72.232 1329.49 72.232C1330.43 72.232 1331.19 72.05 1331.78 71.686C1332.37 71.322 1332.66 70.8453 1332.66 70.256C1332.66 69.788 1332.49 69.4153 1332.14 69.138C1331.8 68.8607 1331.26 68.67 1330.53 68.566L1328.14 68.228C1326.84 68.0373 1325.85 67.6387 1325.18 67.032C1324.52 66.408 1324.19 65.5847 1324.19 64.562C1324.19 63.366 1324.66 62.404 1325.62 61.676C1326.57 60.9307 1327.82 60.558 1329.36 60.558C1330.33 60.558 1331.25 60.6967 1332.12 60.974C1333 61.2513 1333.86 61.676 1334.69 62.248L1333.37 63.964C1332.64 63.4787 1331.93 63.132 1331.23 62.924C1330.56 62.6987 1329.87 62.586 1329.18 62.586C1328.38 62.586 1327.74 62.7507 1327.26 63.08C1326.77 63.4093 1326.53 63.8427 1326.53 64.38C1326.53 64.8653 1326.69 65.238 1327.02 65.498C1327.37 65.7407 1327.93 65.9227 1328.71 66.044L1331.1 66.382C1332.4 66.5727 1333.39 66.98 1334.07 67.604C1334.76 68.228 1335.11 69.0513 1335.11 70.074C1335.11 70.6633 1334.96 71.218 1334.67 71.738C1334.39 72.2407 1334 72.674 1333.5 73.038C1333.01 73.402 1332.43 73.6967 1331.75 73.922C1331.08 74.13 1330.35 74.234 1329.57 74.234C1328.43 74.234 1327.35 74.0693 1326.35 73.74C1325.36 73.4107 1324.5 72.9253 1323.77 72.284ZM1337.37 68.8L1337.03 55.15H1339.71L1339.39 68.8H1337.37ZM1338.38 74.208C1337.93 74.208 1337.54 74.0433 1337.21 73.714C1336.88 73.3847 1336.72 72.9947 1336.72 72.544C1336.72 72.0933 1336.88 71.712 1337.21 71.4C1337.54 71.0707 1337.93 70.906 1338.38 70.906C1338.83 70.906 1339.21 71.0707 1339.52 71.4C1339.85 71.712 1340.02 72.0933 1340.02 72.544C1340.02 72.9947 1339.85 73.3847 1339.52 73.714C1339.21 74.0433 1338.83 74.208 1338.38 74.208Z" fill="black"/>
<rect x="1104" width="471" height="96" rx="10" fill="black" fill-opacity="0.5"/>
</g>
<defs>
<filter id="filter0_d" x="552" y="0" width="472" height="97" filterUnits="userSpaceOnUse" color-interpolation-filters="sRGB">
<feFlood flood-opacity="0" result="BackgroundImageFix"/>
<feColorMatrix in="SourceAlpha" type="matrix" values="0 0 0 0 0 0 0 0 0 0 0 0 0 0 0 0 0 0 127 0"/>
<feOffset dx="1" dy="1"/>
<feColorMatrix type="matrix" values="0 0 0 0 1 0 0 0 0 1 0 0 0 0 1 0 0 0 0.25 0"/>
<feBlend mode="normal" in2="BackgroundImageFix" result="effect1_dropShadow"/>
<feBlend mode="normal" in="SourceGraphic" in2="effect1_dropShadow" result="shape"/>
</filter>
<filter id="filter1_d" x="0" y="0" width="472" height="97" filterUnits="userSpaceOnUse" color-interpolation-filters="sRGB">
<feFlood flood-opacity="0" result="BackgroundImageFix"/>
<feColorMatrix in="SourceAlpha" type="matrix" values="0 0 0 0 0 0 0 0 0 0 0 0 0 0 0 0 0 0 127 0"/>
<feOffset dx="1" dy="1"/>
<feColorMatrix type="matrix" values="0 0 0 0 1 0 0 0 0 1 0 0 0 0 1 0 0 0 0.25 0"/>
<feBlend mode="normal" in2="BackgroundImageFix" result="effect1_dropShadow"/>
<feBlend mode="normal" in="SourceGraphic" in2="effect1_dropShadow" result="shape"/>
</filter>
<filter id="filter2_d" x="1104" y="0" width="472" height="97" filterUnits="userSpaceOnUse" color-interpolation-filters="sRGB">
<feFlood flood-opacity="0" result="BackgroundImageFix"/>
<feColorMatrix in="SourceAlpha" type="matrix" values="0 0 0 0 0 0 0 0 0 0 0 0 0 0 0 0 0 0 127 0"/>
<feOffset dx="1" dy="1"/>
<feColorMatrix type="matrix" values="0 0 0 0 1 0 0 0 0 1 0 0 0 0 1 0 0 0 0.25 0"/>
<feBlend mode="normal" in2="BackgroundImageFix" result="effect1_dropShadow"/>
<feBlend mode="normal" in="SourceGraphic" in2="effect1_dropShadow" result="shape"/>
</filter>
<clipPath id="clip0">
<rect width="1575" height="96" fill="white"/>
</clipPath>
</defs>
</svg>
